<?xml version="1.0" standalone="no"?>
<!DOCTYPE svg PUBLIC "-//W3C//DTD SVG 1.1//EN" "http://www.w3.org/Graphics/SVG/1.1/DTD/svg11.dtd" >
<svg xmlns="http://www.w3.org/2000/svg">
<metadata></metadata>
<defs>
<font id="kittithada_thin_35regular" horiz-adv-x="0" >
<font-face units-per-em="2048" ascent="1638" descent="-410" />
<missing-glyph horiz-adv-x="512" />
<glyph unicode="&#xe37;&#xe48;" d="M-201 1147v143h58v-143h-58zM-672 922v57h410v106h57v-106h66v106h57v-163h-590z" />
<glyph unicode="&#xd;" horiz-adv-x="512" />
<glyph unicode=" "  horiz-adv-x="512" />
<glyph unicode="&#x09;" horiz-adv-x="512" />
<glyph unicode="&#xa0;" horiz-adv-x="512" />
<glyph unicode="!" horiz-adv-x="350" d="M193 248h-33l-17 379v338h66v-338zM141 0v139h68v-139h-68z" />
<glyph unicode="&#x22;" horiz-adv-x="426" d="M266 655v310h56v-310h-56zM104 655v310h56v-310h-56z" />
<glyph unicode="#" horiz-adv-x="760" d="M563 590l-33 -234h152v-45h-158l-43 -311h-45l43 311h-235l-43 -311h-45l43 311h-158v45h164l33 234h-160v45h166l43 297h45l-43 -297h237l41 297h45l-41 -297h148v-45h-156zM283 590l-33 -234h237l31 234h-235z" />
<glyph unicode="$" horiz-adv-x="807" d="M752 248q0 -136 -107 -209q-89 -62 -211 -62h-2v-118h-43v121q-171 11 -254 96t-80 243h56q-5 -68 14 -120t61 -90q75 -69 203 -78v444q-75 17 -128.5 34.5t-84.5 37.5q-96 62 -96 184q0 129 98 197q83 59 207 59h4v88h43v-90q285 -24 297 -291h-55q-9 216 -242 240v-416 h6q2 -2 6 -2q153 -33 213 -76q95 -64 95 -192zM389 936h-4q-48 0 -89 -10.5t-73 -32.5q-86 -53 -86 -162q0 -92 76 -141q51 -34 176 -62v408zM698 248q0 103 -80 153q-29 19 -75 34.5t-111 29.5v-436h2q101 0 172 47q92 58 92 172z" />
<glyph unicode="%" horiz-adv-x="1051" d="M997 223q0 -50 -16.5 -94t-46 -76.5t-70.5 -51.5t-90 -19q-50 0 -91.5 19t-71 51.5t-46 76.5t-16.5 94q0 51 16 95.5t45 77.5t71 52t93 19t92.5 -18t70.5 -50.5t44.5 -77.5t15.5 -98zM240 -33h-54l629 998h53zM504 707q0 -50 -16.5 -94t-46 -77t-71 -52t-91.5 -19 t-91.5 19t-71.5 52t-46.5 77t-16.5 94q0 52 16 96.5t46 77t72 51t94 18.5q51 0 92.5 -18t70.5 -50.5t44.5 -77t15.5 -97.5zM946 223q0 86 -43 139q-51 60 -129 60q-41 0 -73 -16t-54.5 -43t-34.5 -63t-12 -77q0 -39 13 -74.5t35.5 -62.5t54 -43t69.5 -16q39 0 71.5 16t55 43 t35 62.5t12.5 74.5zM451 707q0 81 -43 141q-50 59 -129 59q-40 0 -72.5 -15.5t-55 -42.5t-35 -63.5t-12.5 -78.5q0 -39 13 -75t35.5 -63t54 -43t69.5 -16q39 0 71.5 16t55.5 43t35.5 63t12.5 75z" />
<glyph unicode="&#x26;" horiz-adv-x="801" d="M737 0l-116 143q-93 -159 -277 -159q-126 0 -203 61q-84 66 -84 184q0 51 21 97t63 88q20 20 61.5 49t106.5 69q-21 29 -43 59.5t-45 59.5q-43 69 -43 131q0 37 16 68t43.5 53t64 34.5t77.5 12.5q42 0 79.5 -11.5t65.5 -33t44 -53t16 -70.5q0 -90 -64 -157 q-23 -25 -137 -107l231 -282q31 72 31 161h53q-9 -131 -49 -204l156 -193h-68zM532 782q0 27 -12.5 49.5t-33 39t-48 25.5t-57.5 9q-29 0 -56 -9t-48.5 -25.5t-34.5 -39t-13 -49.5q0 -76 125 -225q44 28 73 50.5t46 39.5q59 62 59 135zM336 496q-63 -42 -100.5 -68 t-51.5 -39q-75 -69 -75 -160q0 -89 73 -147q68 -53 162 -53q104 0 182 75q60 57 60 80z" />
<glyph unicode="'" horiz-adv-x="276" d="M111 655v310h55v-310h-55z" />
<glyph unicode="(" horiz-adv-x="326" d="M262 -207q-174 271 -174 617q0 347 174 618h45q-168 -276 -168 -618q0 -341 168 -617h-45z" />
<glyph unicode=")" horiz-adv-x="326" d="M238 410q0 -345 -175 -617h-45q168 274 168 617q0 171 -41.5 325t-126.5 293h45q175 -272 175 -618z" />
<glyph unicode="*" horiz-adv-x="475" d="M268 752l111 -136l-39 -30l-102 143l-107 -143l-37 32l113 134l-170 51l16 45l164 -60l-8 177h55l-8 -177l166 60l14 -45z" />
<glyph unicode="+" horiz-adv-x="741" d="M395 315v-284h-51v284h-283v52h283v282h51v-282h285v-52h-285z" />
<glyph unicode="," horiz-adv-x="375" d="M221 0q0 -136 -86 -170v45q45 17 45 125h-35v129h76v-129v0z" />
<glyph unicode="-" horiz-adv-x="467" d="M94 342v51h281v-51h-281z" />
<glyph unicode="." horiz-adv-x="375" d="M154 0v129h67v-129h-67z" />
<glyph unicode="/" horiz-adv-x="451" d="M35 -23h-55l434 1010h55z" />
<glyph unicode="0" horiz-adv-x="741" d="M705 461q0 -201 -68 -322q-82 -155 -266 -155q-181 0 -267 155q-67 122 -67 322q0 197 67 319q87 154 267 154q184 0 266 -154q68 -124 68 -319zM653 461q0 174 -53 282q-35 75 -93 111.5t-136 36.5q-158 0 -228 -148q-55 -109 -55 -282q0 -174 55 -287q71 -145 228 -145 q158 0 229 145q53 112 53 287z" />
<glyph unicode="1" horiz-adv-x="741" d="M391 0v705h-246v40q70 0 116 8t71 23q29 17 44.5 52.5t20.5 89.5h45v-918h-51z" />
<glyph unicode="2" horiz-adv-x="741" d="M61 0q8 144 150 260l260 184q137 110 137 240q0 94 -59 149.5t-162 55.5q-61 0 -108 -21t-79 -58t-48.5 -89t-16.5 -113h-51q3 155 86 244q79 82 217 82q61 0 111.5 -16t86 -47.5t55 -78.5t19.5 -108q0 -108 -79 -203q-55 -64 -179 -147q-65 -44 -110.5 -77.5 t-71.5 -59.5q-42 -39 -64.5 -75t-27.5 -71h547v-51h-613z" />
<glyph unicode="3" horiz-adv-x="741" d="M680 254q0 -65 -23.5 -115.5t-65.5 -85t-100 -52t-126 -17.5q-77 0 -137.5 21.5t-102 62t-62 100t-16.5 135.5h49q-2 -64 15.5 -114.5t53 -85.5t86 -53.5t114.5 -18.5q115 0 184 57q80 59 80 166q0 120 -99 176q-79 43 -211 37v43q118 -6 195 35q92 50 92 157 q0 92 -71 142q-65 45 -162 45q-61 0 -107.5 -19t-78 -53.5t-49 -82.5t-19.5 -105h-51q1 68 22.5 124.5t61 96.5t95.5 62t126 22q60 0 110 -13.5t88 -39.5q86 -64 86 -179q0 -41 -13.5 -77t-37 -64.5t-55.5 -46.5t-70 -22v-3q47 -6 84 -26t62.5 -50.5t39 -71t13.5 -87.5z" />
<glyph unicode="4" horiz-adv-x="741" d="M537 229v-229h-52v229h-446v52l446 637h52v-644h155v-45h-155zM485 842h-2l-395 -568h397v568z" />
<glyph unicode="5" horiz-adv-x="741" d="M676 303q0 -138 -88 -229q-45 -45 -100.5 -67.5t-125.5 -22.5q-136 0 -225 79q-48 42 -70.5 97t-17.5 121h49q-1 -56 19.5 -102t56 -79t84 -51t104.5 -18q58 0 106 21t83 57.5t54.5 86.5t19.5 107q0 58 -18.5 107.5t-52.5 85.5t-81.5 56.5t-105.5 20.5q-149 0 -240 -129 h-51l92 474h465v-46h-426l-66 -352q84 96 228 96q70 0 126.5 -22.5t96.5 -63.5t62 -98.5t22 -128.5z" />
<glyph unicode="6" horiz-adv-x="741" d="M692 293q0 -134 -88 -221q-87 -88 -221 -88q-326 0 -326 430q0 520 336 520q59 0 108 -16t85.5 -46.5t59.5 -76t30 -103.5h-51q-6 45 -24.5 81.5t-48.5 62t-70.5 39.5t-88.5 14q-287 0 -287 -471l3 -4q15 43 42.5 78.5t63.5 61t79 39t89 13.5q134 0 221 -90 q88 -87 88 -223zM639 293q0 110 -74 190q-70 80 -182 80q-56 0 -104 -21t-82.5 -58t-54 -86t-19.5 -105q0 -113 76 -189q75 -75 184 -75q110 0 182 75q74 79 74 189z" />
<glyph unicode="7" horiz-adv-x="741" d="M668 868q-85 -91 -148 -178t-108 -172q-60 -115 -94.5 -245t-45.5 -273h-55q8 118 30.5 220.5t59.5 193.5q48 118 124.5 232.5t184.5 225.5h-542v46h594v-50v0z" />
<glyph unicode="8" horiz-adv-x="741" d="M688 264q0 -139 -92 -213q-82 -67 -225 -67q-69 0 -125.5 16.5t-98.5 50.5q-94 76 -94 213q0 48 14 89t40.5 71.5t64 50t84.5 25.5v2q-170 33 -170 203q0 117 90 180q73 49 195 49q121 0 194 -49q88 -60 88 -180q0 -170 -170 -203v-2q47 -6 85 -25.5t64.5 -50t41 -71.5 t14.5 -89zM604 705q0 184 -233 184q-234 0 -234 -184q0 -93 74 -140q63 -43 160 -43q95 0 161 43q72 46 72 140zM637 264q0 213 -266 213q-119 0 -189 -49q-80 -56 -80 -164q0 -114 82 -178q35 -28 82.5 -41.5t104.5 -13.5t104 13.5t82 41.5q80 62 80 178z" />
<glyph unicode="9" horiz-adv-x="741" d="M688 504q0 -520 -336 -520q-118 0 -193 62t-89 179h51q11 -91 72.5 -143.5t158.5 -52.5q287 0 287 471l-2 4q-15 -44 -43 -79.5t-64 -61t-79 -39t-89 -13.5q-134 0 -223 88q-86 91 -86 226q0 132 88 221q89 88 221 88q326 0 326 -430zM623 625q0 112 -76 188t-185 76 q-107 0 -182 -78q-74 -77 -74 -186q0 -110 72 -191q74 -80 184 -80q56 0 104 21t83 58t54.5 86.5t19.5 105.5z" />
<glyph unicode=":" horiz-adv-x="375" d="M154 565v129h67v-129h-67zM154 0v129h67v-129h-67z" />
<glyph unicode=";" horiz-adv-x="375" d="M154 565v129h67v-129h-67zM221 0q0 -136 -86 -170v45q45 17 45 125h-35v129h76v-129z" />
<glyph unicode="&#x3c;" horiz-adv-x="741" d="M61 307v72l627 315v-55l-582 -295l582 -299v-55z" />
<glyph unicode="=" horiz-adv-x="741" d="M61 446v54h619v-54h-619zM61 184v52h619v-52h-619z" />
<glyph unicode="&#x3e;" horiz-adv-x="741" d="M61 -10v55l582 295l-582 299v55l627 -319v-70z" />
<glyph unicode="?" horiz-adv-x="702" d="M623 733q0 -98 -66 -170q-29 -29 -59.5 -57t-61.5 -55q-65 -73 -65 -162v-56h-52v52q0 108 64 184l121 113q63 63 63 151q0 98 -63 152q-58 49 -150 49q-59 0 -105.5 -19t-78.5 -54.5t-48 -85t-13 -109.5h-52q-2 73 16.5 132t57 101t94.5 65t129 23q119 0 189 -61 q80 -71 80 -193zM311 0v129h70v-129h-70z" />
<glyph unicode="@" horiz-adv-x="1081" d="M1020 567q0 -152 -94 -268q-96 -117 -199 -117q-115 0 -96 107l-6 -8q-39 -51 -85.5 -77t-103.5 -26q-38 0 -69.5 16t-54 43.5t-35.5 64.5t-13 79q0 150 88 272q48 66 106 98.5t124 32.5q31 0 57.5 -9.5t46 -26t31.5 -39t16 -47.5h4l31 96h55l-129 -402q-8 -23 -11 -41 t-3 -32q0 -54 45 -54q90 0 166 107q80 109 80 235q0 163 -129 271q-119 100 -279 100q-186 0 -317 -137q-133 -139 -133 -328q0 -214 141 -340q129 -114 313 -114q55 0 108.5 14.5t101.5 41t89 64t72 84.5h59q-31 -57 -77.5 -103.5t-103 -79t-120.5 -50t-129 -17.5 q-220 0 -360 134q-146 140 -146 366q0 106 37 195.5t111 165.5q146 149 352 149q195 0 326 -119q133 -121 133 -301zM698 580q0 159 -125 159q-107 0 -186 -123q-35 -55 -53.5 -112t-18.5 -117q0 -74 39 -119t101 -45q79 0 155 107q45 63 66.5 125t21.5 125z" />
<glyph unicode="A" horiz-adv-x="788" d="M741 0l-118 309h-455l-121 -309h-63l381 965h65l375 -965h-64zM399 907h-4l-209 -547h418z" />
<glyph unicode="B" horiz-adv-x="840" d="M797 270q0 -65 -23.5 -115t-66.5 -84.5t-104.5 -52.5t-137.5 -18h-381v965h381q157 0 235 -78q64 -64 64 -172q0 -40 -12.5 -75.5t-35.5 -63t-55 -45.5t-71 -23v-4q42 9 112 -43q95 -64 95 -191zM707 725q0 188 -242 188h-322v-387h322q115 0 178.5 54t63.5 145zM739 270 q0 205 -274 205h-322v-424h322q128 0 201 56.5t73 162.5z" />
<glyph unicode="C" horiz-adv-x="938" d="M897 375q-12 -172 -125 -285t-272 -113q-205 0 -332 148q-60 69 -89.5 159t-29.5 199q0 110 30.5 199.5t90.5 161.5q122 143 330 143q214 0 317 -149q26 -38 42 -77.5t24 -82.5h-58q-10 59 -39 107t-72 81.5t-98 51.5t-116 18q-180 0 -287 -131q-107 -128 -107 -322 q0 -193 105 -319q108 -135 289 -135q138 0 235 104q99 105 105 242h57v0z" />
<glyph unicode="D" horiz-adv-x="887" d="M836 483q0 -216 -107 -344q-118 -139 -336 -139h-309v965h311q235 0 348 -148q93 -123 93 -334zM776 483q0 430 -395 430h-238v-862h242q85 0 151 22.5t117 67.5q123 111 123 342z" />
<glyph unicode="E" horiz-adv-x="745" d="M84 0v965h639v-52h-580v-387h549v-51h-549v-424h588v-51h-647z" />
<glyph unicode="F" horiz-adv-x="684" d="M143 913v-387h490v-51h-490v-475h-59v965h596v-52h-537z" />
<glyph unicode="G" horiz-adv-x="987" d="M860 0v190h-4q-18 -47 -52.5 -86t-81 -67t-104 -44t-122.5 -16q-208 0 -330 146q-117 138 -117 354q0 214 117 357q126 153 332 153q76 0 143.5 -22.5t120 -64t87 -101t44.5 -133.5h-55q-12 60 -42 110t-74.5 85.5t-101.5 55t-122 19.5q-182 0 -291 -139 q-101 -128 -101 -320q0 -195 99 -315q107 -133 293 -133q86 0 154.5 28t115.5 79.5t71 124t21 161.5h-352v51h401v-473h-49z" />
<glyph unicode="H" horiz-adv-x="895" d="M754 0v475h-611v-475h-59v965h59v-439h611v439h59v-965h-59z" />
<glyph unicode="I" horiz-adv-x="225" d="M84 0v965h59v-965h-59z" />
<glyph unicode="J" horiz-adv-x="639" d="M557 301q0 -142 -31 -205q-58 -119 -229 -119q-174 0 -231 111q-20 35 -29.5 89.5t-9.5 129.5h57q0 -136 31 -194q45 -84 174 -84q143 0 186 98q11 25 17 70.5t6 113.5v654h59v-664v0z" />
<glyph unicode="K" horiz-adv-x="811" d="M762 0l-426 524l-193 -188v-336h-59v965h59v-555l590 555h78l-434 -404l461 -561h-76z" />
<glyph unicode="L" horiz-adv-x="670" d="M84 0v965h59v-914h543v-51h-602z" />
<glyph unicode="M" horiz-adv-x="1077" d="M934 0v893h-2l-363 -893h-59l-365 893h-2v-893h-59v965h84l371 -904h4l366 904h84v-965h-59z" />
<glyph unicode="N" horiz-adv-x="901" d="M750 0l-605 889h-2v-889h-59v965h74l600 -881h2v881h59v-965h-69z" />
<glyph unicode="O" horiz-adv-x="991" d="M950 483q0 -216 -121 -358q-127 -148 -333 -148q-106 0 -188.5 37t-145.5 111q-121 139 -121 358q0 217 123 361q122 143 332 143q206 0 333 -145q121 -142 121 -359zM891 483q0 191 -105 320q-110 133 -290 133q-91 0 -164 -32.5t-127 -98.5q-107 -131 -107 -322 q0 -193 105 -319q109 -135 293 -135q180 0 290 135q105 126 105 319z" />
<glyph unicode="P" horiz-adv-x="786" d="M764 690q0 -125 -75.5 -196.5t-215.5 -71.5h-330v-422h-59v965h395q285 0 285 -275zM707 692q0 221 -236 221h-328v-440h324q122 0 186 70q54 60 54 149z" />
<glyph unicode="Q" horiz-adv-x="991" d="M924 -49l-158 115q-107 -89 -270 -89q-106 0 -188.5 37t-145.5 111q-121 139 -121 358q0 217 123 361q122 143 332 143q206 0 333 -145q121 -142 121 -359q0 -244 -143 -383l147 -108zM891 483q0 191 -105 320q-110 133 -290 133q-91 0 -164 -32.5t-127 -98.5 q-107 -131 -107 -322q0 -193 105 -319q109 -135 293 -135q66 0 121.5 18t103.5 53l-143 105l30 41l152 -113q131 125 131 350z" />
<glyph unicode="R" horiz-adv-x="840" d="M731 0q-19 37 -22 102v111q-1 59 -13.5 101.5t-40 70t-71 40.5t-105.5 13h-336v-438h-59v965h395q301 0 301 -248q0 -217 -190 -250v-2q157 -21 172 -205l4 -151q3 -78 29 -109h-64zM723 713q0 200 -264 200h-316v-421h336q244 0 244 221z" />
<glyph unicode="S" horiz-adv-x="840" d="M786 248q0 -137 -112 -209q-94 -62 -221 -62q-181 0 -285 78q-118 91 -115 264h58q-10 -148 96 -225q89 -65 246 -65q105 0 182 47q94 58 94 172q0 109 -102 162q-29 17 -84.5 32.5t-136.5 32.5t-136.5 34.5t-87.5 37.5q-102 62 -102 184q0 125 102 197q45 29 98.5 44 t118.5 15q351 0 363 -293h-57q-3 59 -25 104.5t-62 76t-95 46t-124 15.5q-100 0 -170 -43q-90 -53 -90 -162q0 -129 168 -178l311 -78q168 -64 168 -227z" />
<glyph unicode="T" horiz-adv-x="688" d="M371 913v-913h-58v913h-331v52h725v-52h-336z" />
<glyph unicode="U" horiz-adv-x="895" d="M811 387q0 -410 -365 -410q-362 0 -362 410v578h59v-578q0 -358 303 -358q306 0 306 358v578h59v-578v0z" />
<glyph unicode="V" horiz-adv-x="739" d="M403 0h-67l-354 965h57l330 -910h2l329 910h58z" />
<glyph unicode="W" horiz-adv-x="1184" d="M918 0h-66l-260 911h-2l-258 -911h-66l-282 965h61l254 -899h2l254 899h72l256 -899h2l254 899h61z" />
<glyph unicode="X" horiz-adv-x="739" d="M696 0l-325 455l-328 -455h-66l359 496l-336 469h66l305 -424l303 424h65l-333 -469l356 -496h-66z" />
<glyph unicode="Y" horiz-adv-x="764" d="M410 399v-399h-60v399l-379 566h68l342 -519l346 519h66z" />
<glyph unicode="Z" horiz-adv-x="717" d="M-2 0v51l643 862h-608v52h674v-52l-644 -862h656v-51h-721z" />
<glyph unicode="[" horiz-adv-x="322" d="M121 -207v1235h186v-43h-135v-1149h135v-43h-186z" />
<glyph unicode="\" horiz-adv-x="444" d="M410 -23l-430 1010h53l430 -1010h-53z" />
<glyph unicode="]" horiz-adv-x="322" d="M14 -207v43h136v1149h-136v43h187v-1235h-187z" />
<glyph unicode="^" horiz-adv-x="799" d="M688 319l-289 570l-288 -570h-58l312 613h71l309 -613h-57z" />
<glyph unicode="_" horiz-adv-x="676" d="M0 -168v68h676v-68h-676z" />
<glyph unicode="`" horiz-adv-x="221" d="M139 799l-180 188h74l160 -188h-54z" />
<glyph unicode="a" horiz-adv-x="666" d="M662 6q-8 -3 -17.5 -4.5t-23.5 -1.5q-93 0 -93 100v25h-2q-24 -62 -88 -98q-70 -43 -166 -43q-229 0 -229 196q0 184 252 205q163 12 199 37q34 25 34 108q0 136 -190 136q-206 0 -209 -185h-51q3 230 260 230q242 0 242 -187v-395q0 -84 45 -84q11 0 20 1t17 3v-43z M528 395q-27 -30 -100 -39l-147 -16q-189 -21 -189 -160q0 -66 47 -108.5t133 -42.5q145 0 215 104q41 65 41 131v131z" />
<glyph unicode="b" horiz-adv-x="739" d="M696 365q0 -217 -112 -316q-79 -65 -185 -65q-117 0 -192 69q-52 46 -68 97h-2v-150h-51v965h51v-412h2q59 158 260 158q146 0 226 -101q71 -92 71 -245zM645 365q0 126 -61 208q-68 93 -185 93q-128 0 -196 -86q-64 -77 -64 -215q0 -73 15.5 -130t44.5 -102 q70 -104 200 -104q126 0 191 108q55 89 55 228z" />
<glyph unicode="c" horiz-adv-x="692" d="M647 244q-6 -62 -29.5 -110t-61 -81.5t-87 -51t-107.5 -17.5q-78 0 -138.5 27.5t-102.5 84.5q-76 101 -76 258q0 152 80 250q88 107 233 107q119 0 193 -56q81 -60 90 -176h-49q-4 45 -23 80t-49.5 59t-72 36t-89.5 12q-122 0 -196 -97q-68 -89 -68 -215q0 -73 17.5 -133 t52 -102.5t84 -66t114.5 -23.5q47 0 87.5 15.5t72 43.5t51.5 68t25 88h49v0z" />
<glyph unicode="d" horiz-adv-x="739" d="M604 0v143h-2q-80 -159 -262 -159q-151 0 -227 110q-70 95 -70 252q0 81 20 148t58 115t94.5 75t130.5 27q45 0 86 -11.5t75 -32.5t58.5 -52t36.5 -70h2v420h49v-965h-49zM602 346q0 133 -61 221q-71 99 -195 99q-126 0 -194 -97q-29 -43 -44.5 -98.5t-15.5 -124.5 q0 -134 64 -219q70 -98 192 -98q123 0 193 98q61 88 61 219z" />
<glyph unicode="e" horiz-adv-x="696" d="M94 340q-2 -66 15 -120t49 -97q69 -94 190 -94q99 0 164 53.5t82 153.5h51q-41 -252 -297 -252q-143 0 -225 104q-78 98 -78 248q0 155 74 258q42 59 99.5 88t129.5 29q152 0 236 -111q73 -101 67 -260h-557zM600 385q-6 122 -70 199q-70 82 -182 82q-110 0 -180 -88 q-63 -79 -72 -193h504z" />
<glyph unicode="f" horiz-adv-x="332" d="M354 924q-20 5 -41 6.5t-41 1.5q-98 0 -98 -98v-140h141v-45h-141v-649h-51v649h-123v45h123v144q0 139 149 139q20 0 41 -1.5t41 -6.5v-45v0z" />
<glyph unicode="g" horiz-adv-x="715" d="M639 29q0 -293 -295 -293q-259 0 -268 215h51q12 -172 219 -172q244 0 244 246v151h-2q-73 -149 -250 -149q-145 0 -221 98q-72 93 -72 244q0 145 76 239q80 103 217 103q42 0 81.5 -10.5t72.5 -30t58 -48t38 -65.5h2v137h49v-665zM590 369q0 124 -64 206q-68 91 -188 91 q-118 0 -182 -93q-62 -83 -62 -204q0 -128 62 -211q66 -88 182 -88q118 0 188 92q64 82 64 207z" />
<glyph unicode="h" horiz-adv-x="696" d="M569 0v438q0 228 -196 228q-58 0 -104 -21t-78 -59.5t-49 -92t-17 -118.5v-375h-51v965h51v-412h2q27 73 98 117q32 20 70 30.5t80 10.5q246 0 246 -281v-430h-52z" />
<glyph unicode="i" horiz-adv-x="223" d="M86 819v139h51v-139h-51zM86 0v694h51v-694h-51z" />
<glyph unicode="j" horiz-adv-x="223" d="M86 819v139h51v-139h-51zM137 -74q0 -174 -139 -174h-43v45q5 -2 12.5 -2h20.5q27 0 46 6t30.5 21.5t16.5 41.5t5 66v764h51v-768z" />
<glyph unicode="k" horiz-adv-x="616" d="M580 0l-295 395l-158 -141v-254h-51v965h51v-643l424 372h72l-299 -266l319 -428h-63z" />
<glyph unicode="l" horiz-adv-x="225" d="M86 0v965h53v-965h-53z" />
<glyph unicode="m" horiz-adv-x="1059" d="M934 0v475q0 191 -166 191q-47 0 -86 -17.5t-67.5 -50.5t-44 -80t-15.5 -106v-412h-51v475q0 191 -162 191q-80 0 -143 -60q-72 -72 -72 -194v-412h-51v694h51v-139q9 33 29.5 61.5t49 49.5t63.5 33t73 12q171 0 205 -148h2q55 148 217 148q219 0 219 -236v-475h-51z" />
<glyph unicode="n" horiz-adv-x="692" d="M565 0v438q0 228 -194 228q-58 0 -103.5 -21t-77 -59.5t-48.5 -92t-17 -118.5v-375h-51v694h51v-143q50 160 242 160q249 0 249 -262v-449h-51z" />
<glyph unicode="o" horiz-adv-x="719" d="M676 348q0 -155 -82 -256q-89 -108 -236 -108q-145 0 -233 108q-82 101 -82 256q0 153 84 258q85 105 231 105q148 0 236 -107q82 -100 82 -256zM625 348q0 132 -68 221q-77 97 -199 97q-124 0 -194 -95q-72 -93 -72 -223q0 -66 17.5 -122t52.5 -101q73 -96 196 -96 q122 0 199 96q68 89 68 223z" />
<glyph unicode="p" horiz-adv-x="739" d="M696 346q0 -166 -75 -260q-81 -102 -232 -102q-191 0 -250 157h-2v-389h-51v942h51v-155h2q17 68 76 114q70 58 174 58q149 0 234 -109q73 -97 73 -256zM645 346q0 133 -59 219q-67 101 -197 101t-194 -99q-56 -83 -56 -221q0 -317 250 -317q63 0 112 23t83 71 q31 42 46 98t15 125z" />
<glyph unicode="q" horiz-adv-x="739" d="M604 -248v400h-2q-61 -168 -256 -168q-149 0 -227 106q-76 95 -76 258q0 157 70 254q77 109 225 109q181 0 264 -160h2v143h49v-942h-49zM602 348q0 131 -61 219q-71 99 -193 99q-121 0 -192 -97q-64 -88 -64 -221q0 -69 15.5 -124.5t44.5 -98.5q67 -96 194 -96 q125 0 195 98q61 88 61 221z" />
<glyph unicode="r" horiz-adv-x="371" d="M395 647q-123 9 -200 -76q-36 -38 -53 -86.5t-17 -105.5v-379h-51v694h51v-153h2q12 37 38.5 67.5t62.5 52t79 31.5t88 6v-51v0z" />
<glyph unicode="s" horiz-adv-x="639" d="M594 176q0 -103 -88 -151q-71 -41 -180 -41q-122 0 -195 61q-79 64 -82 182h49q2 -47 20 -83.5t48 -62t71 -39t89 -13.5q82 0 141 30q76 40 76 117t-74 115q-20 9 -60 20t-102 25q-57 12 -98 25.5t-64 27.5q-73 46 -73 141q0 93 80 142q32 20 73 30.5t92 8.5 q256 -3 256 -217h-51q-6 169 -203 172q-40 2 -73.5 -6t-59.5 -23q-63 -37 -63 -105q0 -74 72 -110q41 -22 155 -43q62 -13 104.5 -26.5t67.5 -30.5q72 -47 72 -146z" />
<glyph unicode="t" horiz-adv-x="352" d="M334 0q-14 -2 -26 -3t-23 -1q-158 0 -158 170v483h-127v45h127v217h51v-217h154v-45h-154v-483q0 -77 41 -107q33 -20 115 -14v-45v0z" />
<glyph unicode="u" horiz-adv-x="692" d="M565 0v131h-2q-68 -147 -244 -147q-245 0 -245 280v430h51v-438q0 -227 194 -227q56 0 101.5 21t77.5 59.5t49.5 91.5t17.5 118v375h51v-694h-51z" />
<glyph unicode="v" horiz-adv-x="592" d="M336 0h-64l-274 694h57l246 -637h4l232 637h57z" />
<glyph unicode="w" horiz-adv-x="938" d="M723 0h-66l-188 635h-2l-188 -635h-66l-215 694h55l191 -635h4l186 635h68l188 -635h2l191 635h57z" />
<glyph unicode="x" horiz-adv-x="592" d="M537 0l-240 326l-242 -326h-63l270 365l-252 329h66l221 -293l215 293h66l-248 -329l270 -365h-63z" />
<glyph unicode="y" horiz-adv-x="592" d="M305 -74q-20 -52 -36 -84.5t-27 -46.5q-39 -45 -129 -45h-23t-24 2v43q48 -2 81 3.5t50 19.5q14 11 30 41t33 78l23 61l-291 696h57l258 -633l236 633h57z" />
<glyph unicode="z" horiz-adv-x="567" d="M12 0v49l465 600h-430v45h488v-49l-465 -600h487v-45h-545z" />
<glyph unicode="{" horiz-adv-x="444" d="M324 -207q-119 0 -119 158v215q0 216 -94 219v51q94 3 94 219v215q0 158 119 158h69v-43h-65q-72 0 -72 -139v-213q0 -85 -23 -139t-69 -80q46 -40 53 -52q20 -29 29.5 -73t9.5 -101v-215q0 -68 6 -90q16 -47 66 -47h65v-43h-69z" />
<glyph unicode="|" horiz-adv-x="297" d="M123 -23v1010h51v-1010h-51z" />
<glyph unicode="}" horiz-adv-x="444" d="M334 385q-94 -3 -94 -219v-215q0 -158 -119 -158h-70v43h66q26 0 41.5 12t23.5 35q6 22 6 90v215q0 57 9.5 101t29.5 73q6 10 54 52q-93 52 -93 219v213q0 139 -71 139h-66v43h70q119 0 119 -158v-215q0 -216 94 -219v-51v0z" />
<glyph unicode="~" horiz-adv-x="799" d="M702 383q-71 -115 -159 -115q-56 0 -140 45q-83 47 -135 47q-87 0 -133 -100l-41 33q55 119 166 119q35 0 72.5 -12t79.5 -35q82 -46 131 -46q70 0 123 103l36 -39v0z" />
<glyph unicode="&#xa4;" horiz-adv-x="840" d="M422 729q-96 0 -160 -67q-65 -73 -65 -160q0 -94 63 -164q65 -68 162 -68q92 0 158 68q63 63 63 164q0 46 -16.5 87t-45.5 72t-70 49.5t-89 18.5zM8 164l148 145q-62 83 -62 193q0 114 62 188l-148 150l76 71l145 -145q79 59 193 59q55 0 105.5 -16t82.5 -43l150 145 l71 -71l-145 -150q59 -79 59 -188q0 -114 -59 -193l145 -145l-71 -76l-150 148q-15 -13 -36 -23.5t-47 -20.5q-53 -18 -105 -18q-110 0 -193 62l-145 -148z" />
<glyph unicode="&#xa9;" horiz-adv-x="1081" d="M1047 483q0 -210 -148 -358t-358 -148q-107 0 -195.5 37t-163.5 111q-147 147 -147 358q0 208 147 357q148 147 359 147t358 -147q74 -75 111 -163t37 -194zM995 483q0 97 -32.5 179.5t-98.5 148.5q-130 133 -321 133q-195 0 -328 -133q-129 -132 -129 -328 q0 -193 131 -327q133 -133 326 -133q191 0 321 133q131 134 131 327zM809 379q-6 -49 -27.5 -89t-55.5 -68.5t-77.5 -44t-93.5 -15.5q-137 0 -221 90q-84 93 -84 231q0 71 21.5 129.5t61 100.5t95 65t123.5 23q51 0 95.5 -14t78.5 -41t56 -66t28 -88h-51q-7 37 -25.5 68 t-45.5 52.5t-61 33.5t-73 12q-59 0 -105.5 -20t-79 -56t-50 -86t-17.5 -111q0 -59 18 -109.5t51 -88t80 -59t105 -21.5q160 0 203 172h51z" />
<glyph unicode="&#xab;" horiz-adv-x="518" d="M260 340v55l156 176v-71l-117 -133l117 -134v-69zM88 340v55l156 176v-71l-117 -133l117 -134v-69z" />
<glyph unicode="&#xac;" horiz-adv-x="741" d="M616 119v178h-574v90h656v-268h-82z" />
<glyph unicode="&#xad;" horiz-adv-x="741" d="M61 315v52h619v-52h-619z" />
<glyph unicode="&#xae;" horiz-adv-x="1081" d="M1047 483q0 -210 -148 -358t-358 -148q-107 0 -195.5 37t-163.5 111q-147 147 -147 358q0 208 147 357q148 147 359 147t358 -147q74 -75 111 -163t37 -194zM995 483q0 97 -32.5 179.5t-98.5 148.5q-130 133 -321 133q-195 0 -328 -133q-129 -132 -129 -328 q0 -193 131 -327q133 -133 326 -133q191 0 321 133q131 134 131 327zM743 184l-180 275h-155v-275h-52v596h226q194 0 194 -164q0 -136 -153 -157l178 -275h-58zM725 618q0 119 -152 119h-165v-233h127q190 0 190 114z" />
<glyph unicode="&#xb0;" horiz-adv-x="541" d="M266 915q43 0 80.5 -16t65 -43t43.5 -64t16 -79t-16 -79t-43.5 -64.5t-65 -43.5t-80.5 -16q-41 0 -77 15.5t-63.5 43t-43.5 64.5t-16 80q0 40 15.5 77t42.5 64.5t63.5 44t78.5 16.5zM266 858q-31 0 -57.5 -11t-46 -30.5t-30.5 -46t-11 -57.5q0 -30 11.5 -57t31 -47 t46 -32t56.5 -12q61 0 105 43q45 46 45 105q0 30 -12 56.5t-32.5 46t-47.5 31t-58 11.5z" />
<glyph unicode="&#xb6;" horiz-adv-x="727" d="M629 -244h-62v1356h-145v-1356h-55v805q-168 0 -263 62q-104 74 -104 235q0 153 94 229q90 66 248 66h389v-41h-102v-1356z" />
<glyph unicode="&#xb7;" horiz-adv-x="338" d="M170 520q31 0 51.5 -21.5t20.5 -49.5q0 -31 -21.5 -52.5t-50.5 -21.5q-33 0 -53.5 20.5t-20.5 53.5q0 30 20.5 50.5t53.5 20.5z" />
<glyph unicode="&#xbb;" horiz-adv-x="518" d="M272 164v69l117 134l-117 133v71l158 -176v-55zM102 164v69l117 134l-117 133v71l156 -176v-55z" />
<glyph unicode="&#xd7;" horiz-adv-x="741" d="M629 45l-260 260l-258 -258l-37 37l258 258l-258 258l37 35l258 -258l260 260l35 -37l-258 -258l258 -260z" />
<glyph unicode="&#xf7;" horiz-adv-x="741" d="M440 612q0 -69 -69 -69q-70 0 -70 69q0 70 70 70q69 0 69 -70zM61 315v52h619v-52h-619zM440 70q0 -70 -69 -70q-70 0 -70 70q0 69 70 69q69 0 69 -69z" />
<glyph unicode="&#xe00;" horiz-adv-x="205" />
<glyph unicode="&#xe01;" horiz-adv-x="795" d="M655 0v549q0 54 -19 96.5t-53.5 71.5t-82 44t-103.5 15q-171 0 -258 -123v-653h-57v668q115 166 315 166q133 0 219 -68q97 -71 97 -199v-567h-58z" />
<glyph unicode="&#xe02;" horiz-adv-x="723" d="M641 270q0 -62 -21 -114t-59 -89.5t-90 -59t-113 -21.5q-66 0 -120 24t-99 72q-88 94 -88 240q0 185 182 344l-92 135l47 30l119 -169q-198 -162 -198 -340q0 -61 18 -112t51 -88t79 -58t101 -21q49 0 90.5 17t71.5 47.5t47 72t17 90.5v551h57v-551v0z" />
<glyph unicode="&#xe03;" horiz-adv-x="733" d="M651 270q0 -62 -21 -114t-58.5 -89.5t-89.5 -59t-113 -21.5q-133 0 -222 92q-86 92 -86 235q0 198 199 324v121l-90 -82q-44 65 -137 112l30 41q35 -17 62.5 -38t50.5 -46l82 74h59v-211q-198 -97 -198 -295q0 -60 18 -110t51 -85.5t79 -55t102 -19.5q49 0 90.5 17 t71.5 47.5t46.5 72t16.5 90.5v549h57v-549v0z" />
<glyph unicode="&#xe04;" horiz-adv-x="795" d="M655 0v563q0 48 -20.5 87.5t-55.5 67.5t-82 43t-100 15t-100 -15t-82 -43t-55.5 -67.5t-20.5 -87.5v-119h258v-57h-258v-387h-57v563q0 116 96 197q94 74 219 74q127 0 219 -74q97 -80 97 -197v-563h-58z" />
<glyph unicode="&#xe05;" horiz-adv-x="836" d="M696 0v578q0 37 -11 72t-31 62.5t-47 45.5t-58 22l-131 -162l-133 162q-32 -4 -58.5 -21.5t-46 -44.5t-30.5 -62t-11 -74v-134h279v-57h-279v-387h-57v578q0 52 16 98t45.5 81t70 55.5t89.5 21.5l115 -134l114 134q49 -1 90 -21.5t70.5 -55.5t45.5 -81t16 -98v-578h-58z " />
<glyph unicode="&#xe06;" horiz-adv-x="805" d="M723 256q0 -59 -23 -108.5t-62.5 -85.5t-93.5 -56t-116 -20q-40 0 -81 10t-78.5 27t-68.5 41t-50 53v-117h-58v506q0 57 64 102q65 50 65 84v70l-98 -76q-20 31 -47.5 57.5t-61.5 49.5l33 36q47 -33 82 -73l90 65h60v-145q0 -38 -66 -86q-32 -23 -47.5 -47.5t-15.5 -48.5 v-220q0 -93 86 -163q89 -68 192 -68q52 0 96 15t75.5 42.5t49 67t17.5 88.5v565h57v-565v0z" />
<glyph unicode="&#xe07;" horiz-adv-x="754" d="M702 412q0 -98 -29.5 -175.5t-84 -131.5t-132 -82.5t-173.5 -28.5q-19 0 -37.5 1t-38.5 3l-197 809l58 14l186 -770q88 -5 160 17t123.5 69t79.5 116.5t28 158.5q0 83 -22 148.5t-64.5 111.5t-104.5 70t-143 24h-24.5t-26.5 -2v57q14 2 27.5 2h27.5q190 0 291 -110 q96 -108 96 -301z" />
<glyph unicode="&#xe08;" horiz-adv-x="768" d="M717 426q0 -196 -129 -322q-63 -63 -145.5 -90.5t-182.5 -19.5l-100 442h-82v58h129l98 -443q154 -3 254 105q51 54 75.5 121t24.5 149q0 77 -23 141t-65 110.5t-100.5 72.5t-128.5 26q-162 0 -289 -121l-45 37q133 142 338 142q167 0 268 -115q51 -57 77 -129.5 t26 -163.5z" />
<glyph unicode="&#xe09;" horiz-adv-x="774" d="M635 0v117q-95 -131 -279 -131q-60 0 -110.5 19.5t-87 55t-56.5 85t-20 110.5v147h-62v58h119v-205q0 -49 17 -88.5t47.5 -67t72.5 -42.5t91 -15q101 0 184 68q84 69 84 163v289q0 48 -21 87.5t-56 67.5t-82 43t-99 15q-90 0 -166 -43q-42 -23 -69 -52t-38 -65h-57 q21 98 121 158q48 29 100 44.5t109 15.5q127 0 219 -74q96 -81 96 -197v-524l21 -39h-78z" />
<glyph unicode="&#xe0a;" horiz-adv-x="731" d="M680 322q0 -147 -92 -236q-100 -95 -269 -98q-69 -2 -127.5 8.5t-109.5 32.5v792h57v-747q80 -34 183 -31q70 1 126 20.5t95 56t59.5 87.5t20.5 115q0 61 -19.5 112.5t-56 91.5t-88 68t-115.5 43l201 192l39 -32l-144 -142q240 -98 240 -333z" />
<glyph unicode="&#xe0b;" horiz-adv-x="752" d="M700 322q0 -148 -92 -236q-98 -95 -268 -98q-69 -2 -128 8.5t-110 32.5v471q0 28 14 54t40 52q55 52 55 86v70l-98 -76q-20 31 -47.5 57.5t-61.5 49.5l33 36q47 -33 82 -73l90 65h59v-139q0 -37 -55 -92q-53 -56 -53 -105v-411q78 -34 182 -31q70 1 126 20.5t95 56 t59.5 87.5t20.5 115q0 61 -19.5 112.5t-55.5 91.5t-87.5 68t-115.5 43l200 192l39 -32l-143 -142q239 -97 239 -333z" />
<glyph unicode="&#xe0c;" horiz-adv-x="1327" d="M1245 256q0 -61 -20 -110.5t-56 -85t-86.5 -55t-111.5 -19.5q-170 0 -258 131v-117h-58v549q0 54 -19 96.5t-53.5 71.5t-82 44t-103.5 15q-171 0 -258 -123v-596h144v-57h-201v668q115 166 315 166q133 0 219 -68q97 -71 97 -199v-293q0 -96 80 -163q80 -68 178 -68 q49 0 89 15t68.5 42.5t44 67t15.5 88.5v563h57v-563v0z" />
<glyph unicode="&#xe0d;" horiz-adv-x="1327" d="M1245 256q0 -60 -22.5 -108t-67.5 -87q-45 -38 -99.5 -56.5t-119.5 -18.5q-182 0 -279 114l41 39q94 -96 236 -96q53 0 99 15t80.5 43t54.5 67.5t20 87.5v27q-93 -111 -242 -111q-65 0 -118.5 17t-91.5 49.5t-59.5 78.5t-21.5 105v127q0 54 -19 96.5t-53.5 71.5t-82 44 t-103.5 15q-171 0 -258 -123v-596h144v-57h-201v668q115 166 315 166q133 0 219 -68q97 -71 97 -199v-145q0 -96 69 -143q63 -48 164 -48q50 0 94 15.5t77 43.5t52 68t19 88v373h57v-563v0z" />
<glyph unicode="&#xe0e;" horiz-adv-x="805" d="M666 -307l-187 143l-186 -143h-283v57h275l194 146l187 -140v795q0 54 -19.5 96t-54 70.5t-81.5 43.5t-103 15q-173 0 -258 -123v-653h-150v57h92v611q57 83 135 124.5t181 41.5q131 0 219 -68q96 -72 96 -197v-876h-57z" />
<glyph unicode="&#xe0f;" horiz-adv-x="805" d="M666 -309l-125 123l-113 -131l-113 131l-125 -123h-200v57h188l137 135l113 -131l113 131l125 -119v785q0 54 -19.5 96.5t-54 71.5t-81.5 44t-103 15q-173 0 -258 -123v-653h-150v57h92v611q57 83 135 124.5t181 41.5q131 0 219 -68q96 -72 96 -199v-876h-57z" />
<glyph unicode="&#xe10;" horiz-adv-x="768" d="M717 426q0 -196 -129 -322q-63 -63 -145.5 -90.5t-182.5 -19.5l-102 455h-80v47h129l98 -445q154 -3 254 105q51 54 75.5 121t24.5 149q0 78 -23 142.5t-65 111t-100.5 72.5t-128.5 26q-163 0 -289 -123l-45 37q132 144 338 144q112 0 191 -50l79 95l46 -33l-76 -94 q131 -119 131 -328zM662 -309l-125 123l-113 -131l-113 131l-125 -123h-180v57h168l137 135l113 -131l113 131l125 -119v130l-29 47h86v-250h-57z" />
<glyph unicode="&#xe11;" horiz-adv-x="805" d="M666 0v600q0 33 -10.5 62.5t-27.5 52t-39 36t-46 13.5l-391 -764h-60v506q0 57 64 102q65 47 65 82v72l-98 -76q-20 31 -47.5 57.5t-61.5 49.5l33 36q47 -33 82 -73l90 65h60v-145q0 -38 -66 -86q-32 -23 -47.5 -47.5t-15.5 -48.5v-373l364 700q48 0 87 -16.5t66 -46 t41.5 -70.5t14.5 -90v-598h-57z" />
<glyph unicode="&#xe12;" horiz-adv-x="1372" d="M1290 256q0 -61 -20 -110.5t-56 -85t-86.5 -55t-111.5 -19.5q-170 0 -258 131v-117h-58v573q0 38 -10 73t-27.5 62.5t-42.5 45.5t-55 22l-127 -158l-135 158q-64 -24 -125 -125q-35 -60 -52 -123.5t-17 -132.5q0 -146 53 -241q61 -107 172 -107q68 0 115 62l45 -33 q-64 -86 -160 -86q-138 0 -211 112q-35 54 -53.5 126.5t-18.5 166.5q0 165 82 293q83 130 186 146l119 -134l111 129q47 -1 85.5 -21t66 -54.5t42.5 -81t15 -99.5v-299q0 -96 80 -163q80 -68 178 -68q49 0 89 15t68.5 42.5t44 67t15.5 88.5v563h57v-563v0z" />
<glyph unicode="&#xe13;" horiz-adv-x="1327" d="M1188 0v117q-89 -131 -258 -131q-61 0 -111.5 19.5t-87 55t-56.5 85t-20 110.5v293q0 54 -19 96.5t-53.5 71.5t-82 44t-103.5 15q-171 0 -258 -123v-596h144v-57h-201v668q115 166 315 166q133 0 219 -68q97 -71 97 -199v-311q0 -49 15.5 -88.5t44 -67t68.5 -42.5t89 -15 q98 0 178 68t80 163v545h57v-819h-57z" />
<glyph unicode="&#xe14;" horiz-adv-x="809" d="M670 0v545q0 50 -18.5 92.5t-51.5 73t-78 48t-98 17.5q-137 0 -225 -117q-45 -57 -66.5 -125t-23.5 -147q-2 -74 11.5 -133t41.5 -104q59 -103 172 -103q68 0 115 62l45 -33q-64 -86 -160 -86q-139 0 -215 112q-71 106 -68 285q3 182 107 313q108 134 266 134 q66 0 120.5 -20t96.5 -62q86 -81 86 -203v-549h-57z" />
<glyph unicode="&#xe15;" horiz-adv-x="840" d="M700 0v573q0 38 -10 73t-27.5 62.5t-42.5 45.5t-55 22l-127 -158l-135 158q-65 -24 -123 -125q-35 -60 -52 -123.5t-19 -132.5q-2 -75 11.5 -135t39.5 -108q61 -105 174 -105q68 0 115 62l45 -33q-64 -86 -160 -86q-137 0 -213 112q-35 54 -53.5 126.5t-16.5 166.5 q3 165 82 293q83 130 186 146l119 -134l111 129q47 -1 85.5 -21t66 -54.5t42.5 -81t15 -99.5v-573h-58z" />
<glyph unicode="&#xe16;" horiz-adv-x="795" d="M655 0v549q0 54 -19 96.5t-53.5 71.5t-82 44t-103.5 15q-171 0 -258 -123v-596h144v-57h-201v668q115 166 315 166q133 0 219 -68q97 -71 97 -199v-567h-58z" />
<glyph unicode="&#xe17;" horiz-adv-x="795" d="M655 0v543q0 53 -17 96t-47.5 73.5t-73.5 47t-95 16.5q-103 0 -191 -65q-92 -71 -92 -166v-545h-57v819h57v-114q19 28 50.5 51.5t69.5 41t80 27t83 9.5q62 0 115.5 -19.5t92.5 -55.5t61 -87t22 -113v-559h-58z" />
<glyph unicode="&#xe18;" horiz-adv-x="729" d="M680 248q0 -127 -107 -197q-48 -32 -109 -47.5t-136 -15.5q-148 0 -256 41v389l57 20v-360q90 -35 199 -35q118 0 200 49q93 55 93 156q0 170 -256 217q-82 14 -134 26t-75 21q-99 40 -99 125t95 143q45 26 94 38.5t106 12.5q117 0 203 -53q95 -59 123 -162h-64 q-13 38 -39.5 67.5t-62.5 49.5t-79 30.5t-89 10.5t-86.5 -11t-71 -29t-48 -41t-17.5 -48q0 -63 86 -90q17 -6 59 -15t111 -20q303 -49 303 -272z" />
<glyph unicode="&#xe19;" horiz-adv-x="795" d="M655 0v117q-19 -29 -50 -53t-68.5 -41t-78.5 -27t-81 -10q-62 0 -116 20t-94 56t-62.5 85.5t-22.5 108.5v563h57v-563q0 -49 17.5 -88.5t49 -67t75.5 -42.5t96 -15q106 0 192 68q86 67 86 163v545h58v-819h-58z" />
<glyph unicode="&#xe1a;" horiz-adv-x="795" d="M713 256q0 -118 -95 -195q-93 -75 -221 -75q-127 0 -221 75q-94 78 -94 195v563h57v-563q0 -48 20.5 -87.5t55.5 -67.5t82 -43t100 -15t100 15t82 43t55.5 67.5t20.5 87.5v563h58v-563v0z" />
<glyph unicode="&#xe1b;" horiz-adv-x="795" d="M713 256q0 -118 -95 -195q-93 -75 -221 -75q-127 0 -221 75q-94 78 -94 195v563h57v-563q0 -48 20.5 -87.5t55.5 -67.5t82 -43t100 -15t100 15t82 43t55.5 67.5t20.5 87.5v768h58v-768v0z" />
<glyph unicode="&#xe1c;" horiz-adv-x="999" d="M776 0h-49l-229 719l-226 -719h-47l-215 819h197v-57h-123l168 -662l221 719h51l226 -719l182 719h55z" />
<glyph unicode="&#xe1d;" horiz-adv-x="999" d="M776 0h-49l-229 717l-226 -717h-47l-215 819h197v-59h-123l168 -660l221 719h51l226 -719l235 924h55z" />
<glyph unicode="&#xe1e;" horiz-adv-x="999" d="M776 0h-49l-229 719l-226 -719h-47l-215 819h56l186 -719l221 719h51l226 -719l182 719h55z" />
<glyph unicode="&#xe1f;" horiz-adv-x="999" d="M776 0h-49l-229 717l-226 -717h-47l-215 819h56l186 -719l221 719h51l226 -719l235 924h55z" />
<glyph unicode="&#xe20;" horiz-adv-x="805" d="M666 0v549q0 54 -19.5 96.5t-54 71.5t-81.5 44t-103 15q-173 0 -258 -123v-653h-150v57h92v611q57 83 135 124.5t181 41.5q131 0 219 -68q96 -72 96 -199v-567h-57z" />
<glyph unicode="&#xe21;" horiz-adv-x="795" d="M713 256q0 -59 -23 -108.5t-62.5 -85.5t-93.5 -56t-116 -20q-40 0 -81.5 10t-79 27t-68.5 41t-50 53v-117h-57v819h57v-545q0 -95 86 -163q44 -34 91.5 -51t101.5 -17q52 0 95.5 15t75 42.5t49 67t17.5 88.5v563h58v-563v0z" />
<glyph unicode="&#xe22;" horiz-adv-x="793" d="M711 113q-107 -125 -312 -125q-83 0 -147.5 19.5t-109 54.5t-68 84t-23.5 108q0 85 64 156q26 29 53.5 48.5t58.5 28.5q-32 3 -60 16t-50 34t-34.5 49.5t-12.5 62.5q0 38 18 71t48.5 57t72 38t88.5 14q29 0 54 -3t46 -11v-57q-21 8 -45.5 11t-52.5 3q-71 0 -117 -31 q-51 -32 -51 -92q0 -64 64 -100q50 -31 129 -31h73v-57h-55q-85 0 -154 -55q-75 -60 -75 -150q0 -47 20.5 -86t58 -66.5t90 -43t117.5 -15.5q154 0 254 94v680h58v-706v0z" />
<glyph unicode="&#xe23;" horiz-adv-x="741" d="M690 250q0 -125 -98 -199q-89 -67 -221 -67q-133 0 -221 67q-96 73 -99 197h58q3 -99 81 -156q36 -26 81.5 -38.5t99.5 -12.5t98.5 12.5t81.5 38.5q82 58 82 158q0 133 -252 180q-77 14 -129.5 27.5t-81.5 25.5q-100 46 -100 131q0 48 22.5 87t67.5 71q42 29 92 43 t108 14q119 0 205 -53q94 -57 115 -160h-62q-24 77 -100 119q-70 37 -158 37q-43 0 -81 -9.5t-72 -29.5q-76 -46 -76 -108t86 -97q43 -16 176 -41q297 -54 297 -237z" />
<glyph unicode="&#xe24;" horiz-adv-x="795" d="M655 -307v858q0 54 -19 96t-53.5 70.5t-82 43.5t-103.5 15q-171 0 -258 -123v-596h144v-57h-201v668q115 166 315 166q133 0 219 -68q97 -71 97 -197v-876h-58z" />
<glyph unicode="&#xe25;" horiz-adv-x="813" d="M674 0v332q-16 36 -45 66.5t-66.5 52.5t-82.5 34.5t-93 12.5q-65 0 -116.5 -19.5t-87.5 -54t-55 -81.5t-19 -101q0 -40 12.5 -75.5t34 -62t52 -42t66.5 -15.5q29 0 55.5 6.5t49.5 20.5l33 -45q-29 -20 -63 -29.5t-75 -9.5q-97 0 -161 78q-62 71 -62 174q0 128 88 217 q48 48 109.5 72t138.5 24q177 0 287 -119v127q0 95 -80 154q-77 59 -184 59q-43 0 -84 -12t-75.5 -33t-60 -50.5t-38.5 -64.5h-62q13 48 44.5 88.5t75.5 69t97 44.5t109 16q125 0 219 -74q96 -81 96 -197v-563h-57z" />
<glyph unicode="&#xe26;" horiz-adv-x="805" d="M666 -307v858q0 54 -19.5 96t-54 70.5t-81.5 43.5t-103 15q-173 0 -258 -123v-653h-150v57h92v611q57 83 135 124.5t181 41.5q131 0 219 -68q96 -72 96 -197v-876h-57z" />
<glyph unicode="&#xe27;" horiz-adv-x="737" d="M686 410q0 -176 -86 -297q-92 -127 -250 -127q-52 0 -101 16.5t-89.5 46.5t-70 71.5t-42.5 90.5h59q15 -38 40 -68.5t57 -53t69.5 -34.5t77.5 -12q133 0 209 113q70 100 70 254q0 75 -17.5 139t-52.5 115q-76 112 -209 112q-39 0 -77 -12t-70 -34t-56.5 -53t-37.5 -69 h-62q13 49 42.5 90.5t70 71.5t89.5 47t101 17q158 0 250 -127q86 -121 86 -297z" />
<glyph unicode="&#xe28;" horiz-adv-x="795" d="M655 0v565q0 47 -20.5 86t-55.5 67.5t-82 44t-100 15.5t-100 -15.5t-82 -44t-55.5 -67.5t-20.5 -86v-119h258v-59h-258v-387h-57v565q0 117 94 193q48 38 103 58t118 20q42 0 80.5 -9t75.5 -26l70 80l45 -33l-62 -76q107 -82 107 -207v-565h-58z" />
<glyph unicode="&#xe29;" horiz-adv-x="805" d="M713 406v-150q0 -118 -95 -195q-93 -75 -221 -75q-127 0 -221 75q-94 78 -94 195v563h57v-563q0 -48 20.5 -87.5t55.5 -67.5t82 -43t100 -15t100 15t82 43t55.5 67.5t20.5 87.5v150h-237v86l47 -29h190v356h58v-356h82v-57h-82z" />
<glyph unicode="&#xe2a;" horiz-adv-x="813" d="M674 0v332q-16 36 -45 66.5t-66.5 53t-82.5 35.5t-93 13q-65 0 -116.5 -20t-87.5 -54.5t-55 -82t-19 -101.5q0 -39 12.5 -74.5t34 -62.5t52 -42.5t66.5 -15.5q29 0 55.5 6.5t49.5 20.5l33 -45q-29 -20 -63 -29.5t-75 -9.5q-97 0 -161 78q-62 71 -62 174q0 65 22.5 119.5 t67.5 101.5q93 94 246 94q177 0 287 -119v127q0 95 -80 154t-184 59q-42 0 -83 -12t-75.5 -33t-60.5 -50.5t-39 -64.5h-62q13 49 44.5 89t75.5 68.5t97 44.5t109 16q42 0 80.5 -9t76.5 -26l68 80l45 -33l-61 -76q106 -82 106 -207v-565h-57z" />
<glyph unicode="&#xe2b;" horiz-adv-x="805" d="M676 0v403q0 44 -19.5 81t-52.5 63.5t-76 41.5t-90 15q-11 0 -22.5 -1t-22.5 -3l-254 -158v-442h-57v819h57v-309l518 315l45 -30l-223 -142q55 -6 102 -26t80.5 -52t52.5 -75t19 -94v-406h-57z" />
<glyph unicode="&#xe2c;" horiz-adv-x="999" d="M1016 911q-28 -97 -144 -129q68 -44 68 -116q0 -14 -1.5 -28t-6.5 -30l-156 -608h-49l-229 717l-226 -717h-47l-215 819h56l186 -719l221 719h51l226 -719l129 504q6 28 6 49q0 119 -133 119h-70v47h80q81 0 123 17q58 24 78 90l28 98h58z" />
<glyph unicode="&#xe2d;" horiz-adv-x="868" d="M817 410q0 -187 -106 -306q-108 -118 -277 -118q-170 0 -276 118q-107 119 -107 306q0 13 6 69h258v-57h-206v-12q0 -160 90 -265q93 -102 235 -102q143 0 234 102q92 106 92 265q0 80 -23 147t-66 116t-103 76t-134 27q-211 0 -295 -201h-61q21 59 55 107t79.5 81.5 t101 52t120.5 18.5q170 0 277 -119q106 -119 106 -305z" />
<glyph unicode="&#xe2e;" horiz-adv-x="868" d="M817 410q0 -187 -106 -306q-108 -118 -277 -118q-170 0 -276 118q-107 119 -107 306q0 15 6 71h258v-59h-206v-12q0 -160 90 -265q93 -102 235 -102q143 0 234 102q92 106 92 265q0 157 -90 264q-90 104 -236 104q-208 0 -295 -200h-61q21 59 55 106.5t79.5 81.5t101 52 t120.5 18q89 0 172 -39l70 84l41 -29l-64 -82q164 -120 164 -360z" />
<glyph unicode="&#xe2f;" horiz-adv-x="786" d="M647 0v602q-112 -133 -338 -133q-59 0 -106.5 14t-81.5 38.5t-52 58t-18 73.5q0 38 17.5 70t47.5 55.5t70.5 37t87.5 13.5q60 0 101 -14v-57q-25 8 -49.5 12t-49.5 4q-72 0 -116 -31q-51 -32 -51 -90q0 -30 16 -54.5t43 -42t64 -27t79 -9.5q137 0 240 68q69 43 96 98v133 h58v-819h-58z" />
<glyph unicode="&#xe30;" horiz-adv-x="282" d="M51 606v111h58v-55h133v-56h-191zM51 102v111h58v-55h133v-56h-191z" />
<glyph unicode="&#xe31;" d="M-344 922v122h57v-65h471v-57h-528z" />
<glyph unicode="&#xe32;" horiz-adv-x="555" d="M416 0v528q0 252 -228 252q-92 0 -157 -47v60q42 20 81.5 30.5t77.5 10.5q137 0 216 -84q67 -77 67 -203v-547h-57z" />
<glyph unicode="&#xe33;" horiz-adv-x="555" d="M-14 1008q0 -18 -7 -33.5t-19 -27t-28 -18.5t-34 -7t-34 7t-28 18.5t-19 27t-7 33.5t7 34t19 28t28 19t34 7t34 -7t28 -19t19 -28t7 -34zM416 0v528q0 252 -228 252q-92 0 -157 -47v60q42 20 81.5 30.5t77.5 10.5q137 0 216 -84q67 -77 67 -203v-547h-57zM-57 1008 q0 47 -47 47q-48 0 -48 -47t48 -47q47 0 47 47z" />
<glyph unicode="&#xe34;" d="M-672 922v57h590v-57h-590z" />
<glyph unicode="&#xe35;" d="M-672 922v57h533v106h57v-163h-590z" />
<glyph unicode="&#xe36;" d="M-25 1008q0 -18 -6.5 -33.5t-18.5 -27t-27.5 -18.5t-33.5 -7h-561v57h479q-2 6 -3 13.5t-1 15.5q0 18 7 34t18.5 28t27 19t33.5 7t33.5 -7t27.5 -19t18.5 -28t6.5 -34zM-68 1008q0 47 -45 47t-45 -47t45 -47t45 47z" />
<glyph unicode="&#xe37;" d="M-672 922v57h410v106h57v-106h66v106h57v-163h-590z" />
<glyph unicode="&#xe38;" d="M-139 -307v168h-82v57h139v-225h-57z" />
<glyph unicode="&#xe39;" d="M-82 -190q0 -27 -12 -49.5t-32.5 -39t-46.5 -25.5t-54 -9q-92 0 -138 67v105h-61v59h119v-145q27 -37 84 -37q16 0 31 6t27 16t19 24t7 30v106h57v-108v0z" />
<glyph unicode="&#xe3a;" d="M-57 -137q0 -56 -56 -56q-55 0 -55 56q0 55 55 55q56 0 56 -55z" />
<glyph unicode="&#xe3f;" horiz-adv-x="852" d="M809 270q0 -65 -23.5 -115t-67.5 -84.5t-106.5 -52.5t-140.5 -18h-39v-141h-43v141h-303v965h303v110h43v-110h39q81 0 140 -20t100 -58q65 -65 65 -172q0 -40 -13.5 -75.5t-38.5 -63t-59.5 -45t-76.5 -21.5l2 -4q45 6 119 -43q100 -67 100 -193zM717 725q0 188 -246 188 h-39v-387h39q119 0 182.5 54t63.5 145zM389 913h-244v-387h244v387zM750 270q0 205 -279 205h-39v-424h39q64 0 116 14.5t88 42t55.5 68.5t19.5 94zM389 475h-244v-424h244v424z" />
<glyph unicode="&#xe40;" horiz-adv-x="262" d="M102 0v819h58v-819h-58z" />
<glyph unicode="&#xe41;" horiz-adv-x="446" d="M287 0v819h57v-819h-57zM102 0v819h58v-819h-58z" />
<glyph unicode="&#xe42;" horiz-adv-x="283" d="M104 1212q-77 0 -77 -49q0 -27 39 -53q30 -20 48.5 -33.5t26.5 -21.5q39 -42 39 -111v-944h-57v946q0 32 -20 60.5t-58 54.5q-76 52 -76 102q0 25 11.5 44.5t31.5 33.5t47 21.5t58 7.5h250v-58h-263z" />
<glyph unicode="&#xe43;" horiz-adv-x="283" d="M285 1126q0 -50 -54 -104q-51 -50 -51 -104v-918h-57v928q0 65 51 112q53 50 53 82q0 48 -35.5 77.5t-95.5 29.5q-30 0 -55 -8.5t-43.5 -24t-29 -36t-11.5 -44.5h-57q1 34 16.5 63.5t42 52t61.5 35.5t76 13q40 0 74.5 -11.5t60 -32.5t40 -49t14.5 -61z" />
<glyph unicode="&#xe44;" horiz-adv-x="283" d="M272 1137q-92 -81 -92 -187v-950h-57v936q0 60 22.5 106.5t67.5 81.5l-51 60l-103 -86l-172 137l33 39l139 -109l115 92l98 -120v0z" />
<glyph unicode="&#xe45;" horiz-adv-x="555" d="M416 -307v835q0 252 -228 252q-92 0 -157 -47v60q42 20 81.5 30.5t77.5 10.5q137 0 216 -84q67 -77 67 -203v-854h-57z" />
<glyph unicode="&#xe46;" horiz-adv-x="793" d="M653 -307v903q0 160 -141 184l-131 -139l-133 139q-139 -24 -139 -184v-61h167v-58h-225v119q0 52 16 95t44.5 73.5t69 47.5t89.5 17l111 -112l111 112q49 0 89.5 -17t69 -47.5t44.5 -73.5t16 -95v-903h-58z" />
<glyph unicode="&#xe47;" d="M-446 1083q-125 0 -125 -96v-10h90l112 65l105 -65h119v-55h-123l-101 67l-102 -67h-158v57q0 34 12 62.5t36 49.5t59.5 32.5t81.5 11.5h360v-52h-366z" />
<glyph unicode="&#xe48;" d="M-139 1147v143h57v-143h-57z" />
<glyph unicode="&#xe49;" d="M-242 1147v37q0 43 -39 43h-18v55h33q80 0 80 -61v-19h245v-55h-301z" />
<glyph unicode="&#xe4a;" d="M37 1147v57q0 66 -68 66h-8l-76 -68l-78 68h-4q-67 0 -67 -66v-4h78v-53h-131v67q0 51 35 81t89 30h7l71 -65l72 65h6q56 0 91.5 -30t35.5 -81v-12h131v-55h-184z" />
<glyph unicode="&#xe4b;" d="M-82 1214v-67h-57v67h-72v46h72v67h57v-67h72v-46h-72z" />
<glyph unicode="&#xe4c;" d="M-90 1141q-66 0 -66 -49v-27h-57v35q0 92 94 92h86v-51h-57z" />
<glyph unicode="&#xe4d;" d="M-23 1008q0 -18 -7 -33.5t-19 -27t-28 -18.5t-34 -7t-34 7t-28 18.5t-19 27t-7 33.5t7 34t19 28t28 19t34 7t34 -7t28 -19t19 -28t7 -34zM-66 1008q0 47 -47 47t-47 -47t47 -47t47 47z" />
<glyph unicode="&#xe4e;" d="M-12 1360q-14 2 -29 3t-31 1q-48 0 -91.5 -8t-76.5 -23.5t-52 -37t-19 -48.5q0 -75 121 -69v-45q-45 2 -85.5 -5.5t-78.5 -21.5q-88 -34 -88 -90q0 -49 80 -49q56 0 104 26l22 -39q-63 -32 -135 -32q-127 0 -127 90q0 28 14.5 52.5t39 44t58 32.5t71.5 18v2 q-54 23 -54 88q0 34 23.5 63.5t63.5 51t94 33.5t116 12h29t31 -2v-47v0z" />
<glyph unicode="&#xe4f;" horiz-adv-x="983" d="M911 410q0 -174 -123 -297q-122 -123 -296 -123q-176 0 -297 123q-123 123 -123 297t123 297q122 122 297 122q174 0 296 -122q123 -123 123 -297zM850 410q0 148 -107 252q-103 106 -251 106t-254 -106q-105 -105 -105 -252q0 -148 105 -254q106 -105 254 -105 q147 0 251 105q107 106 107 254zM748 410q0 -106 -76 -183q-73 -73 -180 -73t-183 73q-73 77 -73 183q0 107 73 180q76 76 183 76t180 -76q76 -73 76 -180z" />
<glyph unicode="&#xe50;" horiz-adv-x="737" d="M686 307q0 -131 -94 -225q-91 -94 -223 -94q-66 0 -122 23t-104 71q-92 95 -92 225t92 225q95 95 226 95t223 -95q94 -94 94 -225zM631 307q0 109 -78 189q-77 77 -186 77q-112 0 -189 -77q-76 -77 -76 -189t76 -188q78 -78 189 -78q108 0 186 78t78 188z" />
<glyph unicode="&#xe51;" horiz-adv-x="786" d="M735 313q0 -152 -127 -270q-57 -54 -122.5 -85t-137.5 -42l-26 51q137 15 241 111q115 101 115 235q0 58 -22.5 106t-61.5 82.5t-92.5 53t-114.5 18.5q-115 0 -197 -69q-81 -66 -81 -174q0 -39 13.5 -74.5t37.5 -62.5t56.5 -42.5t70.5 -15.5q48 0 63 12q-98 29 -98 127 q0 27 10.5 51t28 42t41.5 28.5t51 10.5t51 -10.5t41.5 -28.5t28 -42t10.5 -51q0 -40 -18 -75t-49 -61t-73.5 -41t-90.5 -15q-50 0 -92.5 19t-73.5 52.5t-48.5 78.5t-17.5 98q0 130 105 217q95 80 229 80q145 0 248 -86q102 -88 102 -228zM463 274q0 36 -22.5 58t-57.5 22 q-32 0 -56 -22t-24 -58q0 -16 6.5 -30.5t17.5 -25t25.5 -17t30.5 -6.5q35 0 57.5 23.5t22.5 55.5z" />
<glyph unicode="&#xe52;" horiz-adv-x="1104" d="M164 0q-12 151 -33.5 276.5t-56 229t-83.5 186.5t-116 148l45 37q72 -72 125.5 -159t85.5 -194q29 -93 49.5 -208.5t34.5 -256.5h750v377q0 31 -10 55t-27 41t-40 26t-50 9q-86 0 -133 -80v-331h-58v333q-53 78 -145 78q-33 0 -62 -11t-50 -30.5t-33.5 -47t-12.5 -60.5 v-33q31 21 74 21q27 0 50.5 -10.5t41.5 -28.5t28.5 -42t10.5 -51t-10.5 -50.5t-28.5 -41.5t-41.5 -28.5t-50.5 -10.5t-51 10.5t-41.5 28.5t-28 41.5t-10.5 50.5v144q0 44 17.5 82t47 65.5t68.5 43.5t82 16q105 0 174 -78q32 38 72 58t90 20q37 0 70 -13t58.5 -36t40.5 -55.5 t15 -71.5v-449h-858zM498 274q0 36 -22.5 58t-57.5 22q-32 0 -56 -22t-24 -58q0 -16 6.5 -30.5t17.5 -25t25.5 -17t30.5 -6.5q35 0 57.5 23.5t22.5 55.5z" />
<glyph unicode="&#xe53;" horiz-adv-x="940" d="M801 0v436q0 31 -11.5 55t-30.5 41t-43.5 26t-51.5 9q-98 0 -144 -80v-487h-57v489q-53 78 -156 78q-32 0 -62 -11.5t-53.5 -31.5t-38 -47.5t-14.5 -58.5v-187q16 11 34 16t40 5q27 0 51 -10.5t41.5 -28.5t28 -42t10.5 -52q0 -27 -10.5 -50.5t-28 -41t-41.5 -27.5 t-51 -10t-51 10t-41.5 27.5t-28 41t-10.5 50.5v299q0 90 70 147q72 60 155 60q115 0 185 -78q66 78 172 78q37 0 72 -13t62 -36.5t43.5 -56.5t16.5 -73v-446h-57zM293 119q0 35 -22.5 58.5t-57.5 23.5t-57.5 -23.5t-22.5 -58.5q0 -16 6.5 -30.5t17.5 -25.5t25.5 -17.5 t30.5 -6.5q35 0 57.5 24t22.5 56z" />
<glyph unicode="&#xe54;" horiz-adv-x="848" d="M838 860q2 -60 -7.5 -110.5t-27.5 -92.5q-47 -102 -139 -102h-283q-115 0 -195 -76q-40 -38 -59.5 -85.5t-17.5 -106.5t21.5 -105t59.5 -78q71 -61 175 -61q26 0 55 4t61 12q66 17 88 17q-45 21 -80 67q-38 51 -38 109q0 28 10.5 53t29 44t42.5 29.5t51 10.5t50.5 -10.5 t41.5 -28t28.5 -41.5t10.5 -51q0 -26 -10 -49t-27.5 -41t-40 -29.5t-47.5 -13.5q20 -28 108 -43q25 -5 42 -8t26 -6q20 -7 34 -14.5t25 -16.5l-34 -45q-71 37 -164 37q-17 0 -46 -5t-71 -16q-83 -18 -154 -18q-123 0 -206 71q-48 42 -72.5 97.5t-26.5 128.5q-3 138 96 231 q50 48 108 71t126 23h283q110 0 116 248h58zM664 258q0 35 -22.5 57.5t-57.5 22.5q-32 0 -56 -22.5t-24 -57.5t24 -58.5t56 -23.5t56 23.5t24 58.5z" />
<glyph unicode="&#xe55;" horiz-adv-x="848" d="M838 860q2 -60 -7.5 -110.5t-27.5 -92.5q-47 -102 -139 -102h-283q-115 0 -195 -76q-40 -38 -59.5 -85.5t-17.5 -106.5t21.5 -105t59.5 -78q71 -61 175 -61q26 0 55 4t61 12q66 17 88 17q-45 21 -80 67q-38 51 -38 109q0 28 10.5 53t29 44t42.5 29.5t51 10.5t50.5 -10.5 t41.5 -28t28.5 -41.5t10.5 -51q0 -26 -10 -49t-27.5 -41t-40 -29.5t-47.5 -13.5q20 -28 108 -43q25 -5 42 -8t26 -6q20 -7 34 -14.5t25 -16.5l-34 -45q-71 37 -164 37q-17 0 -46 -5t-71 -16q-83 -18 -154 -18q-123 0 -206 71q-48 42 -72.5 97.5t-26.5 128.5q-1 61 19 115 t56 96t85 70.5t106 39.5q-30 31 -30 86q0 28 11.5 52.5t30.5 43t44 29t53 10.5t53.5 -10.5t44.5 -28.5t30 -43t11 -53q0 -46 -24 -80h57q20 -2 36.5 -2h29.5q110 0 116 248h58zM510 694q0 35 -24.5 59.5t-59.5 24.5t-59.5 -24.5t-24.5 -59.5t24.5 -60.5t59.5 -25.5 t59.5 25.5t24.5 60.5zM664 258q0 35 -22.5 57.5t-57.5 22.5q-32 0 -56 -22.5t-24 -57.5t24 -58.5t56 -23.5t56 23.5t24 58.5z" />
<glyph unicode="&#xe56;" horiz-adv-x="795" d="M743 311q0 -142 -102 -233q-101 -92 -250 -92q-134 0 -223 71q-88 73 -88 170q0 28 10.5 52t28.5 42t42 28.5t52 10.5q27 0 51 -10.5t41.5 -28t28 -41.5t10.5 -51q0 -25 -9.5 -48t-26.5 -41t-39.5 -30t-47.5 -14q71 -53 170 -53q124 0 209 76q86 77 86 192q0 111 -82 183 q-82 73 -196 73q-144 0 -254 -104l-58 16q-17 100 -59.5 181.5t-108.5 146.5l43 35q147 -128 179 -301q105 84 258 84q143 0 237 -88q98 -89 98 -226zM293 229q0 35 -22.5 57.5t-57.5 22.5q-32 0 -56 -22.5t-24 -57.5q0 -16 6.5 -30.5t17.5 -25t25.5 -17t30.5 -6.5 q35 0 57.5 23.5t22.5 55.5z" />
<glyph unicode="&#xe57;" horiz-adv-x="1133" d="M1137 811q-86 -64 -86 -178v-449q0 -48 -18.5 -85t-51.5 -61.5t-79 -36t-101 -9.5v446q0 30 -11.5 54t-30.5 40.5t-43.5 25.5t-51.5 9q-98 0 -144 -80v-487h-57v489q-53 78 -156 78q-32 0 -62 -11.5t-53.5 -31.5t-38 -46.5t-14.5 -57.5v-189q16 11 34 16t40 5 q27 0 51 -10.5t41.5 -28.5t28 -42t10.5 -52q0 -27 -10.5 -50.5t-28 -41t-41.5 -27.5t-51 -10t-51 10t-41.5 27.5t-28 41t-10.5 50.5v301q0 88 70 145q72 60 155 60q115 0 185 -78q66 78 172 78q37 0 72 -13t62 -36t43.5 -55.5t16.5 -71.5v-400q25 0 49.5 9t43.5 26t30.5 40 t11.5 52v465q0 104 99 203zM293 119q0 35 -22.5 58.5t-57.5 23.5t-57.5 -23.5t-22.5 -58.5q0 -16 6.5 -30.5t17.5 -25.5t25.5 -17.5t30.5 -6.5q35 0 57.5 24t22.5 56z" />
<glyph unicode="&#xe58;" horiz-adv-x="874" d="M831 838q-6 -85 -36 -163t-84 -151q-115 41 -254 41q-73 0 -135 -18.5t-113 -57.5q-100 -75 -100 -186q0 -45 14 -86t43 -76q23 -32 52 -52.5t61 -31.5l143 170l176 -168q62 29 94 62q-21 3 -40 14t-32.5 27t-21.5 36.5t-8 43.5q0 24 9.5 45t25 36.5t37 25t45.5 9.5 t45 -10t36.5 -26.5t25 -38t9.5 -45.5q0 -66 -59.5 -128t-177.5 -122l-160 149l-127 -149q-107 27 -176 108q-35 45 -53.5 96t-18.5 111q0 138 115 227q117 93 293 93q138 0 229 -31q38 63 59.5 125t26.5 125zM772 242q0 65 -65 65q-66 0 -66 -65q0 -68 66 -68q65 0 65 68z " />
<glyph unicode="&#xe59;" horiz-adv-x="938" d="M956 848q2 -17 3.5 -33t1.5 -33q0 -196 -111 -307q-28 94 -96 94q-22 0 -40 -10.5t-32 -27.5t-22.5 -38.5t-10.5 -43.5q110 -172 142 -445l-58 -8q-14 118 -39 212.5t-63 168.5q-101 192 -273 192q-53 0 -98.5 -19.5t-79 -54t-52.5 -82.5t-19 -104q0 -119 63 -194 q32 -39 71.5 -57.5t84.5 -18.5q-70 33 -70 111q0 27 10.5 51.5t28 42.5t41.5 28.5t51 10.5t51 -10.5t41.5 -28.5t28 -42.5t10.5 -51.5q0 -35 -16 -64.5t-42.5 -51.5t-60.5 -34t-71 -12q-134 0 -209 100q-70 88 -70 225q0 66 21.5 122.5t66.5 101.5q92 90 219 90 q145 0 246 -115q41 115 150 115q67 0 104 -49q22 45 32.5 99.5t10.5 117.5v26.5t-2 26.5h57zM469 150q0 35 -24 58t-56 23t-56 -23t-24 -58q0 -17 6.5 -31.5t17.5 -25t25.5 -17t30.5 -6.5q35 0 57.5 23.5t22.5 56.5z" />
<glyph unicode="&#xe5a;" horiz-adv-x="946" d="M807 0v602q-38 -44 -102 -78v-524h-58v602q-112 -133 -338 -133q-59 0 -106.5 14t-81.5 38.5t-52 58t-18 73.5q0 38 17.5 70t47.5 55.5t70.5 37t87.5 13.5q60 0 101 -14v-57q-25 8 -49.5 12t-49.5 4q-72 0 -116 -31q-51 -32 -51 -90q0 -30 16 -54.5t43 -42t64 -27 t79 -9.5q137 0 240 68q69 43 96 98v133h58v-235q40 26 65.5 51t36.5 51v133h57v-819h-57z" />
<glyph unicode="&#xe5b;" horiz-adv-x="1401" d="M1368 434q0 -13 -35 -16l-119 -4q-21 -66 -38 -66q-15 0 -35 45q-14 31 -22.5 48t-10.5 20l-16 -78q-17 -59 -37 -59q-16 0 -43 59q-17 37 -28 59.5t-17 30.5l-17 -104q-15 -68 -37 -68q-20 0 -45 76q-15 48 -27 77t-20 40q-12 -220 -73 -220q-20 0 -46 97 q-15 62 -24 95.5t-12 41.5q-5 -69 -25.5 -135t-58.5 -129q-101 -168 -263 -168q-57 0 -104.5 25t-81.5 69.5t-53 106.5t-19 137q0 72 17 133t49 110q67 99 170 99q42 0 78.5 -19t62.5 -52t41 -77.5t15 -95.5q0 -40 -8 -73t-23.5 -57t-37.5 -37t-50 -13q-22 0 -40.5 9.5 t-32.5 25.5t-22 37.5t-8 46.5q0 24 8 46t21.5 38.5t32 26t39.5 9.5q34 0 55 -18q-8 68 -44.5 107.5t-84.5 39.5q-37 0 -69.5 -21.5t-56.5 -60.5t-38 -93t-14 -119t15.5 -116.5t43.5 -87t67 -54.5t85 -19q52 0 99 27.5t85 78.5t64.5 123t37.5 160q10 70 37 70q28 0 56 -76 q15 -37 26 -78t19 -88q3 12 8.5 49t13.5 97q9 75 35 75q23 0 53 -65q16 -32 27.5 -67.5t19.5 -74.5q5 26 8.5 52.5t6.5 52.5q9 63 26 63q36 0 101 -159l5 20q2 10 6 25.5t9 36.5q13 47 33 47q9 0 18.5 -10t18 -25t16.5 -33t15 -33q18 67 47 64l110 -12q35 -5 35 -15z M426 453q0 65 -53 65q-19 0 -35 -19.5t-16 -45.5t16 -46t35 -20q53 0 53 66z" />
<glyph unicode="&#x2000;" horiz-adv-x="799" />
<glyph unicode="&#x2001;" horiz-adv-x="1599" />
<glyph unicode="&#x2002;" horiz-adv-x="799" />
<glyph unicode="&#x2003;" horiz-adv-x="1599" />
<glyph unicode="&#x2004;" horiz-adv-x="533" />
<glyph unicode="&#x2005;" horiz-adv-x="399" />
<glyph unicode="&#x2006;" horiz-adv-x="266" />
<glyph unicode="&#x2007;" horiz-adv-x="266" />
<glyph unicode="&#x2008;" horiz-adv-x="199" />
<glyph unicode="&#x2009;" horiz-adv-x="319" />
<glyph unicode="&#x200a;" horiz-adv-x="88" />
<glyph unicode="&#x200c;" />
<glyph unicode="&#x200d;" />
<glyph unicode="&#x2010;" horiz-adv-x="467" d="M94 342v51h281v-51h-281z" />
<glyph unicode="&#x2011;" horiz-adv-x="467" d="M94 342v51h281v-51h-281z" />
<glyph unicode="&#x2012;" horiz-adv-x="467" d="M94 342v51h281v-51h-281z" />
<glyph unicode="&#x2013;" horiz-adv-x="741" d="M61 315v52h619v-52h-619z" />
<glyph unicode="&#x2014;" horiz-adv-x="1483" d="M61 315v52h1360v-52h-1360z" />
<glyph unicode="&#x2018;" horiz-adv-x="276" d="M186 920q-45 -20 -45 -125h39v-140h-80v140q0 69 21.5 111t64.5 59v-45v0z" />
<glyph unicode="&#x2019;" horiz-adv-x="276" d="M174 825q0 -138 -86 -170v45q47 23 47 125h-39v140h78v-140v0z" />
<glyph unicode="&#x201c;" horiz-adv-x="426" d="M344 920q-47 -20 -47 -125h39v-140h-80v140q0 136 88 170v-45zM172 920q-45 -19 -45 -125h39v-140h-80v140q0 69 21.5 111t64.5 59v-45z" />
<glyph unicode="&#x201d;" horiz-adv-x="426" d="M340 825q0 -136 -88 -170v45q47 20 47 125h-39v140h80v-140zM168 825q0 -138 -86 -170v45q47 23 47 125h-39v140h78v-140z" />
<glyph unicode="&#x2022;" horiz-adv-x="758" d="M686 410q0 -127 -90 -217q-89 -91 -217 -91t-217 91q-45 45 -67.5 99.5t-22.5 117.5q0 127 90 217t217 90t217 -90q90 -92 90 -217z" />
<glyph unicode="&#x2026;" horiz-adv-x="1124" d="M903 0v129h68v-129h-68zM528 0v129h68v-129h-68zM154 0v129h67v-129h-67z" />
<glyph unicode="&#x202f;" horiz-adv-x="319" />
<glyph unicode="&#x205f;" horiz-adv-x="399" />
<glyph unicode="&#x25fc;" horiz-adv-x="695" d="M0 695h695v-695h-695v695z" />
<glyph unicode="&#xf700;" horiz-adv-x="768" d="M717 426q0 -196 -129 -322q-63 -63 -145.5 -90.5t-182.5 -19.5l-102 455h-80v47h129l98 -445q154 -3 254 105q51 54 75.5 121t24.5 149q0 78 -23 142.5t-65 111t-100.5 72.5t-128.5 26q-163 0 -289 -123l-45 37q132 144 338 144q112 0 191 -50l79 95l46 -33l-76 -94 q131 -119 131 -328z" />
<glyph unicode="&#xf701;" d="M-836 922v57h590v-57h-590z" />
<glyph unicode="&#xf702;" d="M-836 922v57h533v106h57v-163h-590z" />
<glyph unicode="&#xf703;" d="M-186 1008q0 -18 -7 -33.5t-18.5 -27t-27 -18.5t-33.5 -7h-562v57h480q-2 6 -3 13.5t-1 15.5q0 18 7 34t18.5 28t27 19t33.5 7t33.5 -7t27 -19t18.5 -28t7 -34zM-229 1008q0 47 -45 47t-45 -47t45 -47t45 47z" />
<glyph unicode="&#xf704;" d="M-836 922v57h410v106h57v-106h66v106h57v-163h-590z" />
<glyph unicode="&#xf705;" d="M-344 922v184h57v-184h-57z" />
<glyph unicode="&#xf706;" d="M-315 922v39q0 45 -41 45h-21v59h35q84 0 84 -66v-18h258v-59h-315z" />
<glyph unicode="&#xf707;" d="M-266 922v59q0 70 -70 70h-8l-100 -72l-103 72h-6q-70 0 -70 -70v-10h82v-49h-139v71q0 54 38 85.5t95 31.5h6l97 -70l94 70h8q57 0 95 -31.5t38 -85.5v-12h209v-59h-266z" />
<glyph unicode="&#xf708;" d="M-305 1010v-88h-57v88h-82v49h82v88h57v-88h82v-49h-82z" />
<glyph unicode="&#xf709;" d="M-258 997q-66 0 -66 -49v-26h-57v34q0 93 94 93h86v-52h-57z" />
<glyph unicode="&#xf70a;" d="M-139 922v184h57v-184h-57z" />
<glyph unicode="&#xf70b;" d="M-279 922v39q0 45 -40 45h-21v59h35q84 0 84 -66v-18h258v-59h-316z" />
<glyph unicode="&#xf70c;" d="M-211 922v59q0 70 -70 70h-8l-100 -72l-103 72h-6q-69 0 -69 -70v-10h82v-49h-140v71q0 27 10 48.5t28 37t42.5 23.5t52.5 8h7l96 -70l94 70h8q57 0 95 -31.5t38 -85.5v-12h138v-59h-195z" />
<glyph unicode="&#xf70d;" d="M-164 1010v-88h-57v88h-82v49h82v88h57v-88h82v-49h-82z" />
<glyph unicode="&#xf70e;" d="M-88 997q-66 0 -66 -49v-26h-57v34q0 93 94 93h86v-52h-57z" />
<glyph unicode="&#xf70f;" horiz-adv-x="1327" d="M1245 246q0 -59 -23 -106.5t-62.5 -82t-93.5 -53t-116 -18.5q-125 0 -207 69q-88 73 -88 191v303q0 54 -19 96.5t-53.5 71.5t-82 44t-103.5 15q-171 0 -258 -123v-596h144v-57h-201v668q115 166 315 166q133 0 219 -68q97 -71 97 -199v-321q0 -98 69 -152q63 -51 168 -51 q52 0 96 13.5t75.5 39.5t49 64t17.5 86v573h57v-573v0z" />
<glyph unicode="&#xf710;" d="M-465 922v122h57v-65h471v-57h-528z" />
<glyph unicode="&#xf711;" d="M-188 1008q0 -18 -7 -33.5t-19 -27t-28 -18.5t-34 -7t-34 7t-28.5 18.5t-19.5 27t-7 33.5t7 34t19.5 28t28.5 19t34 7t34 -7t28 -19t19 -28t7 -34zM-231 1008q0 47 -48 47q-47 0 -47 -47t47 -47q48 0 48 47z" />
<glyph unicode="&#xf712;" d="M-508 1083q-125 0 -125 -96v-10h90l113 65l104 -65h119v-55h-123l-100 67l-102 -67h-158v57q0 34 12 62.5t36 49.5t59 32.5t81 11.5h361v-52h-367z" />
<glyph unicode="&#xf713;" d="M-303 1147v143h57v-143h-57z" />
<glyph unicode="&#xf714;" d="M-365 1147v37q0 43 -38 43h-19v55h33q80 0 80 -61v-19h246v-55h-302z" />
<glyph unicode="&#xf715;" d="M-82 1147v57q0 66 -68 66h-8l-75 -68l-78 68h-4q-68 0 -68 -66v-4h78v-53h-131v67q0 51 35.5 81t89.5 30h6l72 -65l71 65h6q56 0 91.5 -30t35.5 -81v-12h131v-55h-184z" />
<glyph unicode="&#xf716;" d="M-248 1214v-67h-57v67h-72v46h72v67h57v-67h72v-46h-72z" />
<glyph unicode="&#xf717;" d="M-246 1141q-65 0 -65 -49v-27h-58v35q0 92 95 92h86v-51h-58z" />
<glyph unicode="&#xf718;" d="M-139 -594v168h-82v57h139v-225h-57z" />
<glyph unicode="&#xf719;" d="M-82 -477q0 -27 -12 -49.5t-32.5 -39t-46.5 -25.5t-54 -9q-92 0 -138 68v104h-61v59h119v-145q27 -37 84 -37q16 0 31 6t27 16t19 24t7 30v106h57v-108v0z" />
<glyph unicode="&#xf71a;" d="M-82 -424q0 -55 -55 -55q-56 0 -56 55t56 55q55 0 55 -55z" />
<glyph unicode="&#xf71d;" />
<glyph unicode="&#xf880;" />
<glyph horiz-adv-x="555" d="M-188 1008q0 -18 -7 -33.5t-19 -27t-28 -18.5t-34 -7t-34 7t-28.5 18.5t-19.5 27t-7 33.5t7 34t19.5 28t28.5 19t34 7t34 -7t28 -19t19 -28t7 -34zM416 0v528q0 252 -228 252q-92 0 -157 -47v60q42 20 81.5 30.5t77.5 10.5q137 0 216 -84q67 -77 67 -203v-547h-57z M-231 1008q0 47 -48 47q-47 0 -47 -47t47 -47q48 0 48 47z" />
<glyph d="M-45 1360q-14 2 -29 3t-30 1q-48 0 -91.5 -8t-76.5 -23.5t-52.5 -37t-19.5 -48.5q0 -75 121 -69v-45q-45 2 -85.5 -5.5t-78.5 -21.5q-88 -34 -88 -90q0 -49 80 -49q56 0 104 26l23 -39q-63 -32 -135 -32q-127 0 -127 90q0 28 14 52.5t39 44t58 32.5t71 18v2 q-53 23 -53 88q0 34 23.5 63.5t63.5 51t94 33.5t116 12h28.5t30.5 -2v-47v0z" />
<glyph />
<glyph />
<glyph d="M-365 1147v143h58v-143h-58zM-836 922v57h410v106h57v-106h66v106h57v-163h-590z" />
<glyph d="M-791 922v57h590v-57h-590z" />
<glyph d="M-791 922v57h533v106h57v-163h-590z" />
</font>
</defs>
</svg>
