<svg xmlns="http://www.w3.org/2000/svg" xmlns:xlink="http://www.w3.org/1999/xlink" width="27.797" height="36.6" viewBox="0 0 27.797 36.6">
  <defs>
    <clipPath id="clip-path">
      <rect id="Rectangle_12" data-name="Rectangle 12" width="27.797" height="36.6" transform="translate(0 0)" fill="none"/>
    </clipPath>
  </defs>
  <g id="Group_5016" data-name="Group 5016" transform="translate(-210 -345)">
    <g id="Group_2" data-name="Group 2" transform="translate(210 345)">
      <g id="Group_1" data-name="Group 1" clip-path="url(#clip-path)">
        <line id="Line_1" data-name="Line 1" y2="2.2" transform="translate(16.097 0)" fill="none" stroke="#e1091d" stroke-width="1.5"/>
        <line id="Line_2" data-name="Line 2" x2="1.1" y2="1.9" transform="translate(11.197 1.6)" fill="none" stroke="#e1091d" stroke-width="1.5"/>
      </g>
    </g>
    <line id="Line_3" data-name="Line 3" x2="2" y2="1.1" transform="translate(217.297 346.6)" fill="none" stroke="#e1091d" stroke-width="1.5"/>
    <g id="Group_4" data-name="Group 4" transform="translate(210 345)">
      <g id="Group_3" data-name="Group 3" clip-path="url(#clip-path)">
        <line id="Line_4" data-name="Line 4" x1="2.3" transform="translate(25.497 9.7)" fill="none" stroke="#e1091d" stroke-width="1.5"/>
        <line id="Line_5" data-name="Line 5" x1="2" y2="1.1" transform="translate(24.197 5.3)" fill="none" stroke="#e1091d" stroke-width="1.5"/>
        <line id="Line_6" data-name="Line 6" x1="1.1" y2="1.9" transform="translate(21.097 1.4)" fill="none" stroke="#e1091d" stroke-width="1.5"/>
        <path id="Path_1" data-name="Path 1" d="M10.5,8.8a10.328,10.328,0,0,0-5.9,9.3v.5L3.2,21.1,1.3,24.4H3.7v4.1a2.862,2.862,0,0,0,2.8,2.8h4.4v5.3" fill="none" stroke="#002469" stroke-width="1.5"/>
        <path id="Path_2" data-name="Path 2" d="M22.4,36.4V25.3a10.127,10.127,0,0,0,1.1-13.1" fill="none" stroke="#002469" stroke-width="1.5"/>
        <path id="Path_3" data-name="Path 3" d="M13.4,20.3a4.923,4.923,0,0,0-.6-2.7,12.306,12.306,0,0,1-2.7-6.5,6.7,6.7,0,0,1,13.4,0,12.306,12.306,0,0,1-2.7,6.5,5.528,5.528,0,0,0-.6,2.9" fill="none" stroke="#e1091d" stroke-width="1.5"/>
        <path id="Path_4" data-name="Path 4" d="M20.7,22a.458.458,0,0,0-.4-.5.664.664,0,0,0,.4-.5.634.634,0,0,0-.5-.6H13.6a.56.56,0,0,0-.5.6.458.458,0,0,0,.4.5.664.664,0,0,0-.4.5c0,.2.2.5.4.5a.664.664,0,0,0-.4.5.634.634,0,0,0,.5.6.713.713,0,0,0,.8.7h5.1a.773.773,0,0,0,.8-.7.56.56,0,0,0,.5-.6.458.458,0,0,0-.4-.5C20.5,22.5,20.7,22.2,20.7,22Z" fill="none" stroke="#e1091d" stroke-width="1.5"/>
        <path id="Path_2251" data-name="Path 2251" d="M-22.226-.554" transform="translate(13.397 21.7)" fill="none" stroke="#9c9c9c" stroke-width="1.5"/>
      </g>
    </g>
  </g>
</svg>
