<svg id="Group_9" data-name="Group 9" xmlns="http://www.w3.org/2000/svg" xmlns:xlink="http://www.w3.org/1999/xlink" width="33.2" height="34.1" viewBox="0 0 33.2 34.1">
  <defs>
    <clipPath id="clip-path">
      <rect id="Rectangle_15" data-name="Rectangle 15" width="33.2" height="34.1" transform="translate(0 0)" fill="none"/>
    </clipPath>
  </defs>
  <g id="Group_8" data-name="Group 8" clip-path="url(#clip-path)">
    <path id="Path_9" data-name="Path 9" d="M25.75,13.35a10.065,10.065,0,0,1,.8,3.9v9.1" fill="none" stroke="#9c9c9c" stroke-width="1.5"/>
    <path id="Path_10" data-name="Path 10" d="M13.05,33.35c-5.4,0-9.8-1.6-9.8-7v-9.1a10.571,10.571,0,0,1,.8-4" fill="none" stroke="#9c9c9c" stroke-width="1.5"/>
    <path id="Path_11" data-name="Path 11" d="M10.75,9.05a8.413,8.413,0,0,0-4.9,3.8,1.188,1.188,0,0,1-1.7.4,1.188,1.188,0,0,1-.4-1.7,10.8,10.8,0,0,1,7-5" fill="none" stroke="#9c9c9c" stroke-width="1.5"/>
    <path id="Path_12" data-name="Path 12" d="M3.85,17.85a3.116,3.116,0,0,0-3.1,3.1v3.9a3.116,3.116,0,0,0,3.1,3.1" fill="none" stroke="#9c9c9c" stroke-width="1.5"/>
    <path id="Path_13" data-name="Path 13" d="M6.65,27.75a1,1,0,0,1-1,1H4.45a1,1,0,0,1-1-1v-9.6a1,1,0,0,1,1-1h1.2a1,1,0,0,1,1,1Z" fill="none" stroke="#9c9c9c" stroke-width="1.5"/>
    <path id="Path_14" data-name="Path 14" d="M26.15,28.05a3.116,3.116,0,0,0,3.1-3.1v-3.9a3.116,3.116,0,0,0-3.1-3.1" fill="none" stroke="#9c9c9c" stroke-width="1.5"/>
    <path id="Path_15" data-name="Path 15" d="M23.25,18.15a1.1,1.1,0,0,1,1-1.1h1.3a1.028,1.028,0,0,1,1,1.1v9.6a1.1,1.1,0,0,1-1,1.1h-1.2a1.028,1.028,0,0,1-1-1.1v-9.6Z" fill="none" stroke="#9c9c9c" stroke-width="1.5"/>
    <path id="Path_16" data-name="Path 16" d="M10.75.75h21.7v12.8H18.85l-4.1,4.1v-4.1h-4Z" fill="none" stroke="#9c9c9c" stroke-width="1.5"/>
    <line id="Line_8" data-name="Line 8" x1="13.9" transform="translate(14.65 5.55)" fill="none" stroke="#9c9c9c" stroke-width="1.5"/>
    <line id="Line_9" data-name="Line 9" x1="13.9" transform="translate(14.65 8.55)" fill="none" stroke="#9c9c9c" stroke-width="1.5"/>
  </g>
</svg>
