<svg id="Group_121" data-name="Group 121" xmlns="http://www.w3.org/2000/svg" xmlns:xlink="http://www.w3.org/1999/xlink" width="36.5" height="24.6" viewBox="0 0 36.5 24.6">
  <defs>
    <clipPath id="clip-path">
      <rect id="Rectangle_84" data-name="Rectangle 84" width="36.5" height="24.6" transform="translate(0 0)" fill="none"/>
    </clipPath>
  </defs>
  <g id="Group_56" data-name="Group 56" clip-path="url(#clip-path)">
    <path id="Path_71" data-name="Path 71" d="M2.1,11.5h0a17.924,17.924,0,0,1,12.5,0c1.2.4,2.1,2.1,2.1,3.6v9.5H0V15.1a4.162,4.162,0,0,1,2.1-3.6m-.6,3.7v8H15.2v-8A2.759,2.759,0,0,0,14.1,13,16,16,0,0,0,2.7,13c-.6.1-1.2,1.2-1.2,2.2" fill="#002469"/>
    <path id="Path_72" data-name="Path 72" d="M21.9,11.5h0a17.924,17.924,0,0,1,12.5,0c1.2.4,2.1,2.1,2.1,3.6v9.5H19.8V15.1a4.162,4.162,0,0,1,2.1-3.6m-.6,3.7v8H35v-8A2.759,2.759,0,0,0,33.9,13a16,16,0,0,0-11.4,0c-.6.1-1.2,1.2-1.2,2.2" fill="#e1091d"/>
    <path id="Path_73" data-name="Path 73" d="M8.4,1.5h0A3.778,3.778,0,0,0,4.6,5.2,3.714,3.714,0,0,0,8.4,8.9a3.691,3.691,0,0,0,3.7-3.7A3.757,3.757,0,0,0,8.4,1.5M8.4,0h0a5.164,5.164,0,0,1,5.2,5.2,5.164,5.164,0,0,1-5.2,5.2A5.316,5.316,0,0,1,3.1,5.2,5.25,5.25,0,0,1,8.4,0" fill="#002469"/>
    <path id="Path_74" data-name="Path 74" d="M28.2,1.5h0a3.778,3.778,0,0,0-3.8,3.7,3.75,3.75,0,0,0,7.5,0,3.757,3.757,0,0,0-3.7-3.7m0-1.5h0a5.164,5.164,0,0,1,5.2,5.2,5.164,5.164,0,0,1-5.2,5.2,5.316,5.316,0,0,1-5.3-5.2A5.25,5.25,0,0,1,28.2,0" fill="#e1091d"/>
  </g>
</svg>
