<svg xmlns="http://www.w3.org/2000/svg" xmlns:xlink="http://www.w3.org/1999/xlink" width="33.597" height="27.813" viewBox="0 0 33.597 27.813">
  <defs>
    <clipPath id="clip-path">
      <rect id="Rectangle_77" data-name="Rectangle 77" width="33.597" height="27.813" transform="translate(0 0)" fill="#9c9c9c"/>
    </clipPath>
  </defs>
  <g id="Group_47" data-name="Group 47" transform="translate(0 0)" clip-path="url(#clip-path)">
    <path id="Path_61" data-name="Path 61" d="M21.425,19a11.146,11.146,0,0,1-7.4,3.8,10.755,10.755,0,0,1-7.9-2.5c-.7.8-1.3,1.5-1.9,2.2-.3.4-.7.5-1,.2a.706.706,0,0,1,0-1.1c.6-.7,1.3-1.5,1.9-2.2-.5-.7-1-1.3-1.5-2-.5.6-1.1,1.2-1.6,1.7-.3.3-.5.6-.8.9-.4.4-.7.4-1,.1a.782.782,0,0,1,0-1.1c.6-.7,1.2-1.4,1.8-2a1.818,1.818,0,0,0,.6-2.2,10.823,10.823,0,0,1,8.5-13.7,10.912,10.912,0,0,1,8.9,2.2l.3.3,1.1-1.1-1.2-1.2c-.3-.3-.4-.5-.2-.9.1-.3.4-.4.8-.4,1.9,0,3.8.1,5.7.1.7,0,.9.2.9.8,0,1.9.1,3.9.1,5.8,0,.3-.1.7-.4.7a1.884,1.884,0,0,1-.8-.2,15.38,15.38,0,0,0-1.3-1.2c-.6.5-1.1,1-1.6,1.5a.446.446,0,0,0,0,.5,11.315,11.315,0,0,1,.4,6.3,28.494,28.494,0,0,1-1.2,3.1c-.1.2-.2.3-.3.5m-.2-9.2c-.1.1-.3.2-.4.3-1.5,1.3-2.9,2.7-4.4,4a1.489,1.489,0,0,1-.9.4c-1.4.1-2.8.1-4.2.2a1.08,1.08,0,0,0-.7.3c-.7.7-1.3,1.5-1.9,2.2-.9,1-1.7,2-2.6,3a9.392,9.392,0,0,0,11.4.6,9.233,9.233,0,0,0,3.7-11m-2.7-4.1a9.519,9.519,0,0,0-12.2-.3,9.357,9.357,0,0,0-3.1,10.4.1.1,0,0,0,.1-.1c1.8-1.9,3.5-3.8,5.2-5.7a1.816,1.816,0,0,1,1.4-.6h4.5a.6.6,0,0,0,.4-.1c1.3-1.2,2.4-2.4,3.7-3.6M5.925,18.3c1.6-1.8,3.2-3.6,4.7-5.3a1.865,1.865,0,0,1,1.6-.7c1.3,0,2.5,0,3.8-.1.2,0,.3,0,.4-.1l4.8-4.5a.6.6,0,0,0,.1-.4,15.258,15.258,0,0,0-1.1-1.6c-1.3,1.3-2.5,2.4-3.7,3.7a1.536,1.536,0,0,1-1.3.5c-1.2,0-2.4,0-3.6-.1a2.2,2.2,0,0,0-2.1.9c-1.6,1.8-3.2,3.5-4.9,5.3a.483.483,0,0,0-.1.7,7.456,7.456,0,0,1,1.4,1.7m16.3-16.8a1.38,1.38,0,0,1,.4.3c.6.6.6.9,0,1.5l-1.3,1.3a20.278,20.278,0,0,1,1.3,1.8c.6-.5,1.1-1,1.7-1.6.6-.5.8-.5,1.4,0a1.38,1.38,0,0,0,.4.3V1.4c-1.3.1-2.5.1-3.9.1" fill="#9c9c9c"/>
    <path id="Path_62" data-name="Path 62" d="M22.225,17.9a14.842,14.842,0,0,0,1.3.9,2.959,2.959,0,0,1,4.1,0c1.6,1.2,3.2,2.3,4.8,3.5a2.721,2.721,0,0,1,.8,3.6c-.9,1.6-2.3,2.3-3.8,1.7a2.177,2.177,0,0,1-.8-.5c-1.6-1.1-3.1-2.3-4.7-3.4a2.772,2.772,0,0,1-1.1-3.8,14.421,14.421,0,0,0-1.3-.9m10.7,5.3c-.2-.2-.3-.7-.6-.9-1.7-1.3-3.4-2.6-5.2-3.8a1.636,1.636,0,0,0-1.2-.2,1.935,1.935,0,0,0-1.4,1.6c-.2.7.2,1.2.8,1.6,1.6,1.1,3.2,2.3,4.7,3.5a1.54,1.54,0,0,0,1.7.3,2.98,2.98,0,0,0,1.2-2.1" fill="#9c9c9c"/>
  </g>
</svg>
