<svg id="Group_14" data-name="Group 14" xmlns="http://www.w3.org/2000/svg" xmlns:xlink="http://www.w3.org/1999/xlink" width="24.226" height="34.3" viewBox="0 0 24.226 34.3">
  <defs>
    <clipPath id="clip-path">
      <rect id="Rectangle_19" data-name="Rectangle 19" width="24.226" height="34.3" transform="translate(0 0)" fill="none"/>
    </clipPath>
  </defs>
  <g id="Group_13" data-name="Group 13" clip-path="url(#clip-path)">
    <path id="Path_20" data-name="Path 20" d="M8.05,24.65l-2.1,2.1-1.1-1.1a.5.5,0,0,0-.7.7l1.5,1.5a.37.37,0,0,0,.3.1c.1,0,.3,0,.3-.1l2.5-2.5a.5.5,0,0,0-.7-.7m.7-5.8a.482.482,0,0,0-.7,0l-2.1,2.1-1.1-1.1a.495.495,0,0,0-.7.7l1.5,1.5a.37.37,0,0,0,.3.1c.1,0,.3,0,.3-.1l2.5-2.5a.483.483,0,0,0,0-.7m14.8-15h-2.9a.472.472,0,0,0-.5.5.473.473,0,0,0,.5.5h2.4v28.1H1.35V4.851h2.4a.473.473,0,0,0,.5-.5.472.472,0,0,0-.5-.5h-3a.472.472,0,0,0-.5.5v29.2a.472.472,0,0,0,.5.5h22.7a.472.472,0,0,0,.5-.5V4.351c.1-.3-.1-.5-.4-.5M4.05,14.65l1.5,1.5a.367.367,0,0,0,.3.1c.1,0,.3,0,.3-.1l2.5-2.5a.495.495,0,1,0-.7-.7l-2,2.2-1.1-1.1a.483.483,0,0,0-.7,0c-.2.1-.2.4-.1.6m16,10.8h-8.9a.5.5,0,0,0,0,1h8.9a.472.472,0,0,0,.5-.5.536.536,0,0,0-.5-.5m0-5.8h-8.9a.5.5,0,0,0,0,1h8.9a.472.472,0,0,0,.5-.5.537.537,0,0,0-.5-.5m-13.6-16a.43.43,0,0,1,.4-.4h3.4a.472.472,0,0,0,.5-.5,1.4,1.4,0,1,1,2.8,0,.472.472,0,0,0,.5.5h3.4a.43.43,0,0,1,.4.4v1.9H6.45Zm-.6,3h12.5a.472.472,0,0,0,.5-.5V3.75a1.538,1.538,0,0,0-1.5-1.5h-2.9a2.556,2.556,0,0,0-2.4-2,2.556,2.556,0,0,0-2.4,2H6.85a1.538,1.538,0,0,0-1.5,1.5v2.4a.535.535,0,0,0,.5.5m14.2,7.1h-8.9a.5.5,0,0,0,0,1h8.9a.472.472,0,0,0,.5-.5.536.536,0,0,0-.5-.5" fill="#9c9c9c"/>
    <path id="Path_21" data-name="Path 21" d="M8.05,24.65l-2.1,2.1-1.1-1.1a.5.5,0,0,0-.7.7l1.5,1.5a.37.37,0,0,0,.3.1c.1,0,.3,0,.3-.1l2.5-2.5a.5.5,0,0,0-.7-.7Zm.7-5.8a.482.482,0,0,0-.7,0l-2.1,2.1-1.1-1.1a.495.495,0,0,0-.7.7l1.5,1.5a.37.37,0,0,0,.3.1c.1,0,.3,0,.3-.1l2.5-2.5A.483.483,0,0,0,8.75,18.851Zm14.8-15h-2.9a.472.472,0,0,0-.5.5.473.473,0,0,0,.5.5h2.4v28.1H1.35V4.851h2.4a.473.473,0,0,0,.5-.5.472.472,0,0,0-.5-.5h-3a.472.472,0,0,0-.5.5v29.2a.472.472,0,0,0,.5.5h22.7a.472.472,0,0,0,.5-.5V4.351C24.05,4.051,23.85,3.851,23.55,3.851ZM4.05,14.65l1.5,1.5a.367.367,0,0,0,.3.1c.1,0,.3,0,.3-.1l2.5-2.5a.495.495,0,1,0-.7-.7l-2,2.2-1.1-1.1a.483.483,0,0,0-.7,0C3.95,14.15,3.95,14.45,4.05,14.65Zm16,10.8h-8.9a.5.5,0,0,0,0,1h8.9a.472.472,0,0,0,.5-.5A.536.536,0,0,0,20.05,25.45Zm0-5.8h-8.9a.5.5,0,0,0,0,1h8.9a.472.472,0,0,0,.5-.5A.537.537,0,0,0,20.05,19.65Zm-13.6-16a.43.43,0,0,1,.4-.4h3.4a.472.472,0,0,0,.5-.5,1.4,1.4,0,1,1,2.8,0,.472.472,0,0,0,.5.5h3.4a.43.43,0,0,1,.4.4v1.9H6.45Zm-.6,3h12.5a.472.472,0,0,0,.5-.5V3.75a1.538,1.538,0,0,0-1.5-1.5h-2.9a2.556,2.556,0,0,0-2.4-2,2.556,2.556,0,0,0-2.4,2H6.85a1.538,1.538,0,0,0-1.5,1.5v2.4A.535.535,0,0,0,5.85,6.65Zm14.2,7.1h-8.9a.5.5,0,0,0,0,1h8.9a.472.472,0,0,0,.5-.5A.536.536,0,0,0,20.05,13.75Z" fill="none" stroke="#9c9c9c" stroke-width="0.5"/>
  </g>
</svg>
