<svg id="Group_2060" data-name="Group 2060" xmlns="http://www.w3.org/2000/svg" xmlns:xlink="http://www.w3.org/1999/xlink" width="32.467" height="30.515" viewBox="0 0 32.467 30.515">
  <defs>
    <clipPath id="clip-path">
      <rect id="Rectangle_983" data-name="Rectangle 983" width="32.467" height="30.515" fill="#fff"/>
    </clipPath>
  </defs>
  <g id="Group_2059" data-name="Group 2059" transform="translate(0 0)" clip-path="url(#clip-path)">
    <path id="Path_937" data-name="Path 937" d="M33.566,39.353a9.185,9.185,0,1,1,9.185-9.185,9.2,9.2,0,0,1-9.185,9.185m0-17.488a8.3,8.3,0,1,0,8.3,8.3,8.313,8.313,0,0,0-8.3-8.3" transform="translate(-17.218 -14.819)" fill="#fff"/>
    <path id="Path_938" data-name="Path 938" d="M54.2,68.554a.441.441,0,0,1,0-.881,14.407,14.407,0,0,0,14.343-13.4.441.441,0,0,1,.88.059A15.291,15.291,0,0,1,54.2,68.554" transform="translate(-37.965 -38.039)" fill="#fff"/>
    <path id="Path_939" data-name="Path 939" d="M100.139,54.619l1.568-1.418,1.417,1.568.064-1.267-1.417-1.568L100.2,53.352Z" transform="translate(-70.72 -36.678)" fill="#fff"/>
    <path id="Path_940" data-name="Path 940" d="M3.879,14.691h-.03a.441.441,0,0,1-.41-.469A15.291,15.291,0,0,1,18.661,0a.441.441,0,1,1,0,.881A14.407,14.407,0,0,0,4.318,14.28a.441.441,0,0,1-.439.411" transform="translate(-2.428 0)" fill="#fff"/>
    <path id="Path_941" data-name="Path 941" d="M3.049,42.437,1.481,43.854.064,42.286,0,43.553,1.417,45.12,2.985,43.7Z" transform="translate(0 -29.863)" fill="#fff"/>
    <path id="Path_942" data-name="Path 942" d="M26.876,35.364a.442.442,0,1,1,.441-.444.444.444,0,0,1-.441.444Zm-3.646-.573a.44.44,0,0,1,.271-.837h0a.441.441,0,0,1-.135.86.447.447,0,0,1-.138-.024m6.736-.288a.441.441,0,1,1,.555.282.43.43,0,0,1-.135.021.444.444,0,0,1-.42-.3M19.94,33.12a.445.445,0,1,1,.258.082.451.451,0,0,1-.258-.082m13.252-.112a.442.442,0,1,1,.617.1.44.44,0,0,1-.617-.1M17.328,30.514v0a.44.44,0,1,1,.614.1.423.423,0,0,1-.259.085.438.438,0,0,1-.355-.179M35.8,30.59a.44.44,0,1,1,.617-.1.441.441,0,0,1-.617.1M15.644,27.226a.44.44,0,1,1,.556.282.445.445,0,0,1-.138.024.436.436,0,0,1-.417-.306m21.9.262a.44.44,0,1,1,.555-.282.447.447,0,0,1-.42.306.433.433,0,0,1-.135-.024m-22.477-3.9a.441.441,0,1,1,.441.441.444.444,0,0,1-.441-.441m22.724-.024h0v-.044a.441.441,0,1,1,.881,0v.047a.441.441,0,1,1-.881,0M15.915,20.49a.44.44,0,1,1,.135.021.419.419,0,0,1-.135-.021m21.328-.344a.441.441,0,1,1,.555.279.434.434,0,0,1-.555-.279M17.4,17.259a.436.436,0,1,1,.259.085.426.426,0,0,1-.259-.085m18.282-.15a.44.44,0,1,1,.614.094.431.431,0,0,1-.259.085.439.439,0,0,1-.355-.179M19.808,14.644a.44.44,0,1,1,.617.094.443.443,0,0,1-.617-.094m13.449.059a.44.44,0,1,1,.614-.1.441.441,0,0,1-.614.1M22.9,12.9a.447.447,0,0,1,.282-.558.441.441,0,0,1,.276.838.47.47,0,0,1-.138.024.444.444,0,0,1-.42-.3m7.3.261a.441.441,0,0,1,.271-.84.441.441,0,0,1-.135.861.455.455,0,0,1-.135-.021M26.391,12.2a.441.441,0,1,1,.441.438.442.442,0,0,1-.441-.438" transform="translate(-10.638 -8.302)" fill="#fff"/>
    <path id="Path_943" data-name="Path 943" d="M49.953,45.852H48.821a2.04,2.04,0,0,1-2.038-2.038.441.441,0,1,1,.881,0,1.158,1.158,0,0,0,1.157,1.157h1.132a1.158,1.158,0,0,0,1.157-1.157V42.682a1.158,1.158,0,0,0-1.157-1.157H48.821a2.04,2.04,0,0,1-2.038-2.038V38.356a2.04,2.04,0,0,1,2.038-2.038h1.132a2.041,2.041,0,0,1,2.038,2.038v.05a.441.441,0,0,1-.881,0v-.05A1.158,1.158,0,0,0,49.953,37.2H48.821a1.158,1.158,0,0,0-1.157,1.157v1.132a1.158,1.158,0,0,0,1.157,1.157h1.132a2.041,2.041,0,0,1,2.038,2.038v1.132a2.041,2.041,0,0,1-2.038,2.038" transform="translate(-33.039 -25.648)" fill="#fff"/>
    <path id="Path_944" data-name="Path 944" d="M54.587,32.5a.441.441,0,0,1-.441-.441V30.358a.441.441,0,1,1,.881,0v1.706a.441.441,0,0,1-.441.441" transform="translate(-38.239 -21.128)" fill="#fff"/>
    <path id="Path_945" data-name="Path 945" d="M54.587,68.358a.441.441,0,0,1-.441-.441V66.212a.441.441,0,1,1,.881,0v1.706a.441.441,0,0,1-.441.441" transform="translate(-38.239 -46.449)" fill="#fff"/>
  </g>
</svg>
