<svg xmlns="http://www.w3.org/2000/svg" xmlns:xlink="http://www.w3.org/1999/xlink" width="27.536" height="27.784" viewBox="0 0 27.536 27.784">
  <defs>
    <clipPath id="clip-path">
      <rect id="Rectangle_1057" data-name="Rectangle 1057" width="27.536" height="27.784" fill="#002469"/>
    </clipPath>
  </defs>
  <g id="Group_2063" data-name="Group 2063" transform="translate(0 0)">
    <g id="Group_2062" data-name="Group 2062" transform="translate(0 0)" clip-path="url(#clip-path)">
      <path id="Path_34" data-name="Path 34" d="M1.636,12.08a4.229,4.229,0,0,0-.319.4A5.081,5.081,0,0,0,.123,17.19,21.559,21.559,0,0,0,19.286,34.523c.2.019.408.028.609.028a5.636,5.636,0,0,0,2.937-.772,4.315,4.315,0,0,0,1.047-.845l.815-.9a4.3,4.3,0,0,0-.3-6.068l-1.375-1.243a4.295,4.295,0,0,0-6.068.3l-.815.9a4.279,4.279,0,0,0-.759,1.18,15.215,15.215,0,0,1-7.559-6.919,4.3,4.3,0,0,0,1.57-1.1l.814-.9a4.3,4.3,0,0,0-.3-6.07L8.519,10.876a4.3,4.3,0,0,0-6.069.3Zm1.633-.16a3.193,3.193,0,0,1,4.509-.225l1.374,1.242a3.194,3.194,0,0,1,.226,4.509l-.814.9h0a3.189,3.189,0,0,1-1.444.916l-.248.074a.552.552,0,0,0-.336.774l.115.232a16.322,16.322,0,0,0,8.629,7.919l.214.084a.552.552,0,0,0,.726-.339l.072-.216a3.179,3.179,0,0,1,.658-1.123l.815-.9a3.191,3.191,0,0,1,4.509-.226l1.374,1.243a3.2,3.2,0,0,1,.226,4.508l-.815.9a3.235,3.235,0,0,1-.793.637,4.721,4.721,0,0,1-2.881.592A20.451,20.451,0,0,1,1.207,16.981a4.04,4.04,0,0,1,.86-3.691.537.537,0,0,0,.05-.049l.038-.041a.607.607,0,0,0,.045-.057,3.082,3.082,0,0,1,.255-.322Z" transform="translate(0 -6.766)" fill="#002469"/>
      <path id="Path_35" data-name="Path 35" d="M57.469,13.118A13.132,13.132,0,0,0,44.352,0a1.149,1.149,0,1,0,0,2.3,10.832,10.832,0,0,1,10.82,10.82,1.149,1.149,0,0,0,2.3,0m-1.148.6a.6.6,0,0,1-.6-.6A11.385,11.385,0,0,0,44.352,1.746a.6.6,0,1,1,0-1.194A12.579,12.579,0,0,1,56.917,13.118a.6.6,0,0,1-.6.6" transform="translate(-29.934 0)" fill="#e1091d"/>
      <path id="Path_36" data-name="Path 36" d="M43.894,13.907a1.149,1.149,0,0,0,0,2.3,6.7,6.7,0,0,1,6.69,6.69,1.149,1.149,0,0,0,2.3,0,9,9,0,0,0-8.988-8.987m7.839,9.584a.6.6,0,0,1-.6-.6,7.251,7.251,0,0,0-7.242-7.242.6.6,0,0,1,0-1.193,8.444,8.444,0,0,1,8.435,8.435.6.6,0,0,1-.6.6" transform="translate(-29.617 -9.636)" fill="#e1091d"/>
    </g>
  </g>
</svg>
