<svg id="Group_2062" data-name="Group 2062" xmlns="http://www.w3.org/2000/svg" xmlns:xlink="http://www.w3.org/1999/xlink" width="31.872" height="30.515" viewBox="0 0 31.872 30.515">
  <defs>
    <clipPath id="clip-path">
      <rect id="Rectangle_984" data-name="Rectangle 984" width="31.872" height="30.515" fill="#fff"/>
    </clipPath>
  </defs>
  <g id="Group_2061" data-name="Group 2061" clip-path="url(#clip-path)">
    <path id="Path_946" data-name="Path 946" d="M16.52,13.137a6.568,6.568,0,1,1,6.568-6.568,6.576,6.576,0,0,1-6.568,6.568m0-12.23a5.662,5.662,0,1,0,5.662,5.662A5.668,5.668,0,0,0,16.52.906" transform="translate(-6.946)" fill="#fff"/>
    <path id="Path_947" data-name="Path 947" d="M26.919,73.795H4.952a.454.454,0,0,1-.419-.28L.034,62.639a.453.453,0,0,1,.419-.626H31.418a.454.454,0,0,1,.419.626l-4.5,10.875a.454.454,0,0,1-.419.28M5.255,72.888H26.616l4.124-9.969H1.131Z" transform="translate(0 -43.28)" fill="#fff"/>
    <path id="Path_948" data-name="Path 948" d="M10.631,49.55a10.1,10.1,0,0,1-4.463-1.036A10.1,10.1,0,0,1,2.5,45.137a.453.453,0,0,1,.353-.687,10.09,10.09,0,0,1,4.882,1.024A10.093,10.093,0,0,1,11.4,48.851a.452.452,0,0,1-.353.686c-.024,0-.174.012-.419.012M3.778,45.361a9.081,9.081,0,0,0,2.8,2.348,9.061,9.061,0,0,0,3.54.919,9.076,9.076,0,0,0-2.8-2.347,9.072,9.072,0,0,0-3.54-.919" transform="translate(-1.697 -31.013)" fill="#fff"/>
    <path id="Path_949" data-name="Path 949" d="M31.308,49.55c-.245,0-.4-.01-.419-.012a.453.453,0,0,1-.353-.687,9.4,9.4,0,0,1,8.553-4.4.453.453,0,0,1,.353.687,10.1,10.1,0,0,1-3.671,3.377,10.107,10.107,0,0,1-4.463,1.036m3.313-3.27a9.056,9.056,0,0,0-2.806,2.346,8.321,8.321,0,0,0,6.344-3.264,9.081,9.081,0,0,0-3.539.918" transform="translate(-21.265 -31.013)" fill="#fff"/>
    <path id="Path_950" data-name="Path 950" d="M30.648,47.9a.453.453,0,0,1-.453-.453v-6.5a.453.453,0,0,1,.906,0v6.5a.453.453,0,0,1-.453.453" transform="translate(-21.073 -28.256)" fill="#fff"/>
    <path id="Path_951" data-name="Path 951" d="M71.686,28.952a4.646,4.646,0,1,1,4.646-4.646,4.652,4.652,0,0,1-4.646,4.646m0-8.387a3.74,3.74,0,1,0,3.74,3.74,3.744,3.744,0,0,0-3.74-3.74" transform="translate(-46.788 -13.72)" fill="#fff"/>
    <path id="Path_952" data-name="Path 952" d="M69.306,53.824a5.916,5.916,0,0,1-5.132-2.785.453.453,0,0,1,.353-.687,5.929,5.929,0,0,1,5.4,2.777.453.453,0,0,1-.353.687c-.015,0-.11.008-.265.008M65.531,51.3a4.793,4.793,0,0,0,3.039,1.565A4.784,4.784,0,0,0,65.531,51.3" transform="translate(-44.742 -35.136)" fill="#fff"/>
    <path id="Path_953" data-name="Path 953" d="M81.947,53.825c-.155,0-.25-.007-.265-.008a.453.453,0,0,1-.353-.687,5.929,5.929,0,0,1,5.4-2.777.453.453,0,0,1,.353.687,5.916,5.916,0,0,1-5.132,2.785M85.725,51.3a4.8,4.8,0,0,0-3.042,1.564A4.793,4.793,0,0,0,85.725,51.3" transform="translate(-56.714 -35.136)" fill="#fff"/>
    <path id="Path_954" data-name="Path 954" d="M81.373,52.944a.453.453,0,0,1-.453-.453V48.38a.453.453,0,1,1,.906,0v4.11a.453.453,0,0,1-.453.453" transform="translate(-56.475 -33.449)" fill="#fff"/>
    <path id="Path_955" data-name="Path 955" d="M28.179,17.819h-.7a1.444,1.444,0,0,1-1.442-1.442.453.453,0,0,1,.906,0,.537.537,0,0,0,.536.536h.7a.536.536,0,0,0,.536-.536v-.7a.536.536,0,0,0-.536-.536h-.7A1.444,1.444,0,0,1,26.036,13.7V13a1.444,1.444,0,0,1,1.442-1.442h.7A1.444,1.444,0,0,1,29.621,13v.031a.453.453,0,0,1-.906,0V13a.536.536,0,0,0-.536-.536h-.7a.537.537,0,0,0-.536.536v.7a.537.537,0,0,0,.536.536h.7a1.444,1.444,0,0,1,1.442,1.442v.7a1.444,1.444,0,0,1-1.442,1.442" transform="translate(-18.171 -8.064)" fill="#fff"/>
    <path id="Path_956" data-name="Path 956" d="M30.923,9.663a.453.453,0,0,1-.453-.453V8.154a.453.453,0,0,1,.906,0V9.21a.453.453,0,0,1-.453.453" transform="translate(-21.265 -5.375)" fill="#fff"/>
    <path id="Path_957" data-name="Path 957" d="M30.923,31.251a.453.453,0,0,1-.453-.453V29.742a.453.453,0,0,1,.906,0V30.8a.453.453,0,0,1-.453.453" transform="translate(-21.265 -20.441)" fill="#fff"/>
  </g>
</svg>
