<svg id="Group_2064" data-name="Group 2064" xmlns="http://www.w3.org/2000/svg" xmlns:xlink="http://www.w3.org/1999/xlink" width="30.673" height="30.235" viewBox="0 0 30.673 30.235">
  <defs>
    <clipPath id="clip-path">
      <rect id="Rectangle_985" data-name="Rectangle 985" width="30.673" height="30.235" fill="#e1091d"/>
    </clipPath>
  </defs>
  <g id="Group_2063" data-name="Group 2063" clip-path="url(#clip-path)">
    <path id="Path_958" data-name="Path 958" d="M10.262,83.715H3.507a3.65,3.65,0,0,1,0-7.295h6.755a.45.45,0,0,1,.45.45v6.394a.45.45,0,0,1-.45.45M3.507,77.321a2.75,2.75,0,0,0,0,5.493H9.812V77.321Z" transform="translate(0.001 -53.48)" fill="#002469"/>
    <path id="Path_959" data-name="Path 959" d="M.45,27.038h0a.45.45,0,0,1-.45-.45H0v-.014L.048,4.324A4.26,4.26,0,0,1,4.214,0H30.222a.45.45,0,0,1,.45.45v22.94a.45.45,0,0,1-.45.45H3.508A2.682,2.682,0,0,0,.9,26.574v.014a.45.45,0,0,1-.45.449M4.214.9A3.359,3.359,0,0,0,.949,4.326L.906,24.144a3.443,3.443,0,0,1,2.6-1.2H29.772V.9Z" fill="#002469"/>
    <path id="Path_960" data-name="Path 960" d="M20.241,28.595a.45.45,0,0,1-.419-.616l2.7-6.8a.45.45,0,0,1,.837,0l2.335,5.9,2.1-3.971a.451.451,0,0,1,.787-.017l2.37,4.039L33.3,21.175a.45.45,0,0,1,.837,0l2.2,5.539,3.319-12.39a.45.45,0,1,1,.87.233l-3.671,13.7a.451.451,0,0,1-.854.05l-2.28-5.748L31.445,28.31a.45.45,0,0,1-.384.283.441.441,0,0,1-.423-.221l-2.429-4.138-2.179,4.12a.45.45,0,0,1-.817-.044l-2.277-5.747L20.66,28.31a.45.45,0,0,1-.419.284" transform="translate(-13.85 -9.791)" fill="#e1091d"/>
    <path id="Path_961" data-name="Path 961" d="M14.97,62.912a1.635,1.635,0,1,1,1.635-1.635,1.637,1.637,0,0,1-1.635,1.635m0-2.37a.735.735,0,1,0,.735.735.736.736,0,0,0-.735-.735" transform="translate(-9.332 -41.737)" fill="#e1091d"/>
    <path id="Path_962" data-name="Path 962" d="M81.756,16.95a.45.45,0,0,1-.386-.219l-1.3-2.162-2.163,1.3a.45.45,0,0,1-.463-.772L80,13.566a.45.45,0,0,1,.617.154l1.529,2.549a.45.45,0,0,1-.386.682" transform="translate(-54.046 -9.448)" fill="#e1091d"/>
  </g>
</svg>
