<svg id="Group_2066" data-name="Group 2066" xmlns="http://www.w3.org/2000/svg" xmlns:xlink="http://www.w3.org/1999/xlink" width="25.69" height="29.785" viewBox="0 0 25.69 29.785">
  <defs>
    <clipPath id="clip-path">
      <rect id="Rectangle_986" data-name="Rectangle 986" width="25.69" height="29.785" transform="translate(0 0)" fill="#fff"/>
    </clipPath>
  </defs>
  <g id="Group_2065" data-name="Group 2065" transform="translate(0 0)" clip-path="url(#clip-path)">
    <path id="Path_963" data-name="Path 963" d="M29.517,37.579H22.329a.437.437,0,0,1-.437-.437V36.8a12.559,12.559,0,0,0-2.148-7.025,7.376,7.376,0,0,1-1.219-4.917,7.484,7.484,0,0,1,6.912-6.645,7.387,7.387,0,0,1,5.574,2,7.438,7.438,0,0,1,1.154,9.468A13.119,13.119,0,0,0,29.953,36.8v.341a.437.437,0,0,1-.437.437m-6.751-.874H29.08a14.012,14.012,0,0,1,2.352-7.5,6.564,6.564,0,0,0-5.939-10.118,6.6,6.6,0,0,0-6.1,5.861,6.514,6.514,0,0,0,1.076,4.341,13.433,13.433,0,0,1,2.3,7.417" transform="translate(-13.101 -12.898)" fill="#fff"/>
    <path id="Path_964" data-name="Path 964" d="M34.238,87.722h-.058a4,4,0,0,1-4-4V82.182a.437.437,0,0,1,.437-.437H37.8a.437.437,0,0,1,.437.437v1.545a4,4,0,0,1-4,4m-3.179-5.1v1.108a3.125,3.125,0,0,0,3.122,3.121h.058a3.125,3.125,0,0,0,3.122-3.121V82.619Z" transform="translate(-21.394 -57.938)" fill="#fff"/>
    <path id="Path_965" data-name="Path 965" d="M43.043,3.656a.437.437,0,0,1-.437-.437V.436a.437.437,0,1,1,.874,0V3.219a.437.437,0,0,1-.437.437" transform="translate(-30.197 0.001)" fill="#fff"/>
    <path id="Path_966" data-name="Path 966" d="M14.883,15.32a.435.435,0,0,1-.309-.128l-1.968-1.968a.437.437,0,0,1,.618-.618l1.968,1.968a.437.437,0,0,1-.309.746" transform="translate(-8.844 -8.844)" fill="#fff"/>
    <path id="Path_967" data-name="Path 967" d="M68.38,68.817a.436.436,0,0,1-.309-.128L66.1,66.721a.437.437,0,0,1,.618-.618l1.968,1.968a.437.437,0,0,1-.309.746" transform="translate(-46.761 -46.761)" fill="#fff"/>
    <path id="Path_968" data-name="Path 968" d="M3.22,43.479H.437a.437.437,0,1,1,0-.874H3.22a.437.437,0,1,1,0,.874" transform="translate(0 -30.197)" fill="#fff"/>
    <path id="Path_969" data-name="Path 969" d="M78.876,43.479H76.093a.437.437,0,1,1,0-.874h2.783a.437.437,0,1,1,0,.874" transform="translate(-53.622 -30.197)" fill="#fff"/>
    <path id="Path_970" data-name="Path 970" d="M12.916,68.817a.437.437,0,0,1-.309-.746L14.575,66.1a.437.437,0,0,1,.618.618l-1.968,1.968a.435.435,0,0,1-.309.128" transform="translate(-8.845 -46.761)" fill="#fff"/>
    <path id="Path_971" data-name="Path 971" d="M66.413,15.32a.437.437,0,0,1-.309-.746l1.968-1.968a.437.437,0,0,1,.618.618l-1.968,1.968a.435.435,0,0,1-.309.128" transform="translate(-46.761 -8.844)" fill="#fff"/>
    <path id="Path_972" data-name="Path 972" d="M55.69,6.687a.437.437,0,0,1-.4-.6l1.065-2.571a.437.437,0,1,1,.807.334L56.094,6.417a.437.437,0,0,1-.4.27" transform="translate(-39.161 -2.298)" fill="#fff"/>
    <path id="Path_973" data-name="Path 973" d="M27.8,6.687a.437.437,0,0,1-.4-.27L26.334,3.846a.437.437,0,0,1,.807-.334l1.065,2.571a.437.437,0,0,1-.4.6" transform="translate(-18.641 -2.298)" fill="#fff"/>
    <path id="Path_974" data-name="Path 974" d="M76.147,57.191a.441.441,0,0,1-.167-.033l-2.571-1.065a.437.437,0,1,1,.334-.807l2.571,1.065a.437.437,0,0,1-.167.841" transform="translate(-51.838 -39.16)" fill="#fff"/>
    <path id="Path_975" data-name="Path 975" d="M6.25,28.239a.441.441,0,0,1-.167-.033L3.512,27.141a.437.437,0,1,1,.334-.807L6.418,27.4a.437.437,0,0,1-.167.841" transform="translate(-2.298 -18.641)" fill="#fff"/>
    <path id="Path_976" data-name="Path 976" d="M73.577,28.239a.437.437,0,0,1-.167-.841l2.571-1.065a.437.437,0,0,1,.334.807l-2.571,1.065a.441.441,0,0,1-.167.033" transform="translate(-51.839 -18.64)" fill="#fff"/>
    <path id="Path_977" data-name="Path 977" d="M3.68,57.191a.437.437,0,0,1-.167-.841l2.571-1.065a.437.437,0,1,1,.334.807L3.848,57.157a.441.441,0,0,1-.167.033" transform="translate(-2.299 -39.16)" fill="#fff"/>
    <path id="Path_978" data-name="Path 978" d="M39.346,45.823a.437.437,0,0,1-.4-.253l-1.316-2.833a.437.437,0,1,1,.792-.368l.9,1.943,1.41-3.3a.437.437,0,1,1,.8.343l-1.8,4.2a.437.437,0,0,1-.395.265Z" transform="translate(-26.645 -28.879)" fill="#fff"/>
  </g>
</svg>
