<svg id="Group_2068" data-name="Group 2068" xmlns="http://www.w3.org/2000/svg" xmlns:xlink="http://www.w3.org/1999/xlink" width="30.174" height="29.785" viewBox="0 0 30.174 29.785">
  <defs>
    <clipPath id="clip-path">
      <rect id="Rectangle_987" data-name="Rectangle 987" width="30.174" height="29.785" fill="#fff"/>
    </clipPath>
  </defs>
  <g id="Group_2067" data-name="Group 2067" transform="translate(0 0)" clip-path="url(#clip-path)">
    <path id="Path_979" data-name="Path 979" d="M45.807,28a5.42,5.42,0,1,1,5.42-5.419A5.426,5.426,0,0,1,45.807,28m0-9.958a4.538,4.538,0,1,0,4.538,4.538,4.543,4.543,0,0,0-4.538-4.538" transform="translate(-28.523 -12.12)" fill="#fff"/>
    <path id="Path_980" data-name="Path 980" d="M4.833,71.774H.441A.441.441,0,0,1,0,71.334V61.827a.441.441,0,0,1,.441-.441H4.833a.441.441,0,0,1,.441.441v9.507a.441.441,0,0,1-.441.441M.881,70.893H4.392V62.267H.881Z" transform="translate(0 -43.354)" fill="#fff"/>
    <path id="Path_981" data-name="Path 981" d="M33.1,25.092a.44.44,0,0,1-.161-.03L26.027,22.35a.44.44,0,0,1,.123-.849l3.539-.3a2.79,2.79,0,0,0,2.47-2.169l-2.9.246a5.522,5.522,0,0,1-3.2-.758,3.428,3.428,0,0,0-1.253-.4.441.441,0,0,1-.385-.437V2.313A1.512,1.512,0,0,0,22.843.88a.441.441,0,0,1,0-.881H38.694a2.583,2.583,0,0,1,2.655,2.5V22.464a.44.44,0,0,1-.322.424l-7.8,2.188a.441.441,0,0,1-.119.016m-5-2.873,5.021,1.968,7.34-2.057V2.5A1.7,1.7,0,0,0,38.694.88H24.771A2.222,2.222,0,0,1,25.3,2.313v15a4.161,4.161,0,0,1,1.193.445,4.663,4.663,0,0,0,2.69.645l3.429-.291a.44.44,0,0,1,.478.439,3.654,3.654,0,0,1-3.326,3.531Z" transform="translate(-15.821 0.001)" fill="#fff"/>
    <path id="Path_982" data-name="Path 982" d="M27.844,71.149a.422.422,0,0,1-.1-.011L15.294,68.25a.44.44,0,0,1-.341-.429v-7.2a.441.441,0,0,1,.239-.392,5.764,5.764,0,0,0,1.114-.748,4.393,4.393,0,0,1,3.35-.873,4.308,4.308,0,0,1,1.577.511,4.661,4.661,0,0,0,2.69.646l3.429-.292a.441.441,0,0,1,.478.439,3.653,3.653,0,0,1-3.326,3.53l-1.657.141,5.021,1.968,9.239-2.59a2.844,2.844,0,0,1,3.548,1.749h0a1.481,1.481,0,0,1-.079,1.153,1.536,1.536,0,0,1-.912.775L28,71.12a.444.444,0,0,1-.158.029m-12.01-3.678,11.977,2.778,11.559-4.441a.68.68,0,0,0,.417-.34A.606.606,0,0,0,39.82,65a1.962,1.962,0,0,0-2.461-1.19l-9.4,2.634a.437.437,0,0,1-.28-.014l-6.917-2.711a.441.441,0,0,1,.123-.849l3.539-.3A2.791,2.791,0,0,0,26.9,60.4l-2.9.246a5.522,5.522,0,0,1-3.2-.758,3.422,3.422,0,0,0-1.253-.4,3.511,3.511,0,0,0-2.663.667,6.622,6.622,0,0,1-1.045.734Z" transform="translate(-10.561 -41.364)" fill="#fff"/>
    <path id="Path_983" data-name="Path 983" d="M20.009,5.922H15.975a.441.441,0,0,1-.441-.441V2.314A2.335,2.335,0,0,1,17.352.081.441.441,0,0,1,17.607,0h.385A2.392,2.392,0,0,1,20.45,2.314V5.482a.441.441,0,0,1-.441.441m-3.594-.881h3.153V2.314A1.512,1.512,0,0,0,17.992.881H17.8a.451.451,0,0,1-.088.024,1.476,1.476,0,0,0-1.3,1.409Z" transform="translate(-10.971 0)" fill="#fff"/>
    <path id="Path_984" data-name="Path 984" d="M55.138,31.7h-.644a1.352,1.352,0,0,1-1.35-1.35.441.441,0,1,1,.881,0,.469.469,0,0,0,.469.469h.644a.47.47,0,0,0,.469-.469v-.644a.47.47,0,0,0-.469-.469h-.644a1.352,1.352,0,0,1-1.35-1.35v-.644a1.352,1.352,0,0,1,1.35-1.35h.644a1.352,1.352,0,0,1,1.35,1.35.453.453,0,0,1-.441.455.429.429,0,0,1-.441-.426.476.476,0,0,0-.469-.5h-.644a.469.469,0,0,0-.469.469v.644a.469.469,0,0,0,.469.469h.644a1.352,1.352,0,0,1,1.35,1.35v.644a1.352,1.352,0,0,1-1.35,1.35" transform="translate(-37.532 -18.287)" fill="#fff"/>
    <path id="Path_985" data-name="Path 985" d="M57.778,24.1a.441.441,0,0,1-.441-.441v-.971a.441.441,0,0,1,.881,0v.971a.441.441,0,0,1-.441.441" transform="translate(-40.494 -15.713)" fill="#fff"/>
    <path id="Path_986" data-name="Path 986" d="M57.778,44.518a.441.441,0,0,1-.441-.441v-.971a.441.441,0,0,1,.881,0v.971a.441.441,0,0,1-.441.441" transform="translate(-40.494 -30.133)" fill="#fff"/>
  </g>
</svg>
