<svg id="Group_2114" data-name="Group 2114" xmlns="http://www.w3.org/2000/svg" xmlns:xlink="http://www.w3.org/1999/xlink" width="32.656" height="32.816" viewBox="0 0 32.656 32.816">
  <defs>
    <clipPath id="clip-path">
      <rect id="Rectangle_1107" data-name="Rectangle 1107" width="32.656" height="32.816" transform="translate(0 0)" fill="#002469"/>
    </clipPath>
  </defs>
  <g id="Group_2113" data-name="Group 2113" transform="translate(0 0)" clip-path="url(#clip-path)">
    <path id="Path_112" data-name="Path 112" d="M29.465,54.125h0a.427.427,0,0,1-.383-.238L26.227,48.1l-2.853,5.789a.427.427,0,0,1-.384.238H16.213a.427.427,0,1,1,0-.855h6.513l3.118-6.329a.427.427,0,0,1,.767,0l2.855,5.789,3.963-8.038a.428.428,0,1,1,.767.378l-4.347,8.815a.427.427,0,0,1-.384.238" transform="translate(-10.672 -30.054)" fill="#e1091d"/>
    <path id="Path_113" data-name="Path 113" d="M67.695,46.114l-.659-1.941-1.941.66.544-1.1,1.941-.659.659,1.941Z" transform="translate(-44.008 -29.118)" fill="#e1091d"/>
    <path id="Path_114" data-name="Path 114" d="M8.955,71.14a1.7,1.7,0,1,1,1.7-1.7,1.7,1.7,0,0,1-1.7,1.7m0-2.545a.845.845,0,1,0,.845.845.846.846,0,0,0-.845-.845" transform="translate(-4.905 -45.796)" fill="#e1091d"/>
    <path id="Path_115" data-name="Path 115" d="M30.246,49.557H2.411A2.413,2.413,0,0,1,0,47.146V27.172a2.413,2.413,0,0,1,2.41-2.41h16.56a.486.486,0,0,1,.454.312,5.415,5.415,0,0,0,10.118,0A.486.486,0,0,1,30,24.762h.25a2.413,2.413,0,0,1,2.41,2.41V47.146a2.413,2.413,0,0,1-2.41,2.41M2.411,25.734A1.44,1.44,0,0,0,.973,27.172V47.146a1.44,1.44,0,0,0,1.438,1.439H30.246a1.44,1.44,0,0,0,1.439-1.439V27.172a1.44,1.44,0,0,0-1.366-1.437,6.386,6.386,0,0,1-11.673,0Z" transform="translate(-0.001 -16.741)" fill="#002469"/>
    <path id="Path_116" data-name="Path 116" d="M62.231,12.79a6.431,6.431,0,0,1-5.966-4.108,6.394,6.394,0,1,1,11.932,0,6.431,6.431,0,0,1-5.966,4.108m0-11.817A5.412,5.412,0,1,0,67.654,6.4,5.429,5.429,0,0,0,62.231.973" transform="translate(-37.749 -0.001)" fill="#002469"/>
    <path id="Path_117" data-name="Path 117" d="M32.206,82.965H.54a.486.486,0,0,1,0-.972H32.206a.486.486,0,0,1,0,.972" transform="translate(-0.037 -55.432)" fill="#002469"/>
    <path id="Path_118" data-name="Path 118" d="M38.459,90.848H12.953a.486.486,0,1,1,0-.972H38.459a.486.486,0,1,1,0,.972" transform="translate(-8.428 -60.761)" fill="#002469"/>
    <path id="Path_119" data-name="Path 119" d="M9.429,89.929H7.741a.486.486,0,0,1-.486-.486V87.755a.486.486,0,0,1,.486-.486H9.429a.486.486,0,0,1,.486.486v1.688a.486.486,0,0,1-.486.486m-1.2-.972h.717v-.717H8.227Z" transform="translate(-4.905 -58.999)" fill="#002469"/>
    <path id="Path_120" data-name="Path 120" d="M15.318,20.972a.517.517,0,0,1-.188-.036.511.511,0,0,1-.156-.107.472.472,0,0,1-.142-.343.493.493,0,0,1,.142-.344.5.5,0,0,1,.687,0,.492.492,0,0,1,.143.344.486.486,0,0,1-.143.343.518.518,0,0,1-.159.107.5.5,0,0,1-.184.036" transform="translate(-10.027 -13.526)" fill="#002469"/>
    <path id="Path_121" data-name="Path 121" d="M18.992,7.438a.49.49,0,0,1-.022-.69v0a.486.486,0,1,1,.353.816.472.472,0,0,1-.331-.129m2.941-1.885a.487.487,0,1,1,.554.408.575.575,0,0,1-.074.006.489.489,0,0,1-.48-.414m3.537-.14a.486.486,0,1,1,.486.486.485.485,0,0,1-.486-.486" transform="translate(-12.736 -3.331)" fill="#002469"/>
    <path id="Path_122" data-name="Path 122" d="M50.748,5.9a.485.485,0,0,1-.343-.142.492.492,0,0,1-.143-.344.439.439,0,0,1,.01-.094.812.812,0,0,1,.026-.094.652.652,0,0,1,.045-.081A.506.506,0,0,1,50.4,5.07a.723.723,0,0,1,.075-.062.617.617,0,0,1,.084-.045.823.823,0,0,1,.091-.026.459.459,0,0,1,.188,0,.8.8,0,0,1,.091.026.616.616,0,0,1,.084.045.509.509,0,0,1,.075.062.488.488,0,0,1,.142.343A.506.506,0,0,1,51.2,5.6a.531.531,0,0,1-.107.159.443.443,0,0,1-.159.1.45.45,0,0,1-.185.039" transform="translate(-33.98 -3.331)" fill="#002469"/>
    <path id="Path_123" data-name="Path 123" d="M72.288,16.66h-.651a1.408,1.408,0,0,1-1.406-1.406.486.486,0,1,1,.972,0,.435.435,0,0,0,.434.434h.651a.435.435,0,0,0,.434-.434V14.6a.434.434,0,0,0-.434-.433h-.651a1.408,1.408,0,0,1-1.406-1.406v-.651A1.408,1.408,0,0,1,71.637,10.7h.651a1.407,1.407,0,0,1,1.406,1.406.5.5,0,0,1-.486.5.474.474,0,0,1-.486-.472.442.442,0,0,0-.434-.463h-.651a.435.435,0,0,0-.434.434v.651a.435.435,0,0,0,.434.434h.651A1.407,1.407,0,0,1,73.694,14.6v.652a1.408,1.408,0,0,1-1.406,1.406" transform="translate(-47.48 -7.237)" fill="#e1091d"/>
    <path id="Path_124" data-name="Path 124" d="M74.562,9.316a.486.486,0,0,1-.486-.486V7.848a.486.486,0,0,1,.972,0V8.83a.486.486,0,0,1-.486.486" transform="translate(-50.08 -4.977)" fill="#e1091d"/>
    <path id="Path_125" data-name="Path 125" d="M74.562,28.041a.486.486,0,0,1-.486-.486v-.982a.486.486,0,0,1,.972,0v.982a.486.486,0,0,1-.486.486" transform="translate(-50.08 -17.636)" fill="#e1091d"/>
  </g>
</svg>
