<svg id="Group_2061" data-name="Group 2061" xmlns="http://www.w3.org/2000/svg" xmlns:xlink="http://www.w3.org/1999/xlink" width="31.743" height="32.877" viewBox="0 0 31.743 32.877">
  <defs>
    <clipPath id="clip-path">
      <rect id="Rectangle_1056" data-name="Rectangle 1056" width="31.743" height="32.877" fill="none"/>
    </clipPath>
  </defs>
  <g id="Group_2060" data-name="Group 2060" clip-path="url(#clip-path)">
    <path id="Path_28" data-name="Path 28" d="M49.608,160.615l-.047-4.068a7.487,7.487,0,0,1,7.379-7.553l2.64-.031h.088a7.475,7.475,0,0,1,7.465,7.38l.047,4.068-.855.01-.047-4.068a6.62,6.62,0,0,0-6.61-6.535H59.59l-2.64.031a6.632,6.632,0,0,0-6.535,6.688l.047,4.068Z" transform="translate(-42.499 -127.738)" fill="#002469"/>
    <path id="Path_29" data-name="Path 29" d="M74.065,81.3a6,6,0,1,1,.072,0h-.072m0-11.146h-.061a5.145,5.145,0,0,0,.059,10.29h.061a5.145,5.145,0,0,0-.059-10.29" transform="translate(-58.369 -59.429)" fill="#002469"/>
    <rect id="Rectangle_1050" data-name="Rectangle 1050" width="0.855" height="5.682" transform="translate(10.416 27.157) rotate(-0.667)" fill="#002469"/>
    <rect id="Rectangle_1051" data-name="Rectangle 1051" width="0.855" height="5.681" transform="translate(20.388 27.041) rotate(-0.667)" fill="#002469"/>
    <path id="Path_30" data-name="Path 30" d="M18.342,29.906l-.85-.094A13.46,13.46,0,0,1,28.828,18l.129.845A12.6,12.6,0,0,0,18.342,29.906" transform="translate(-15 -15.434)" fill="#e1091d"/>
    <path id="Path_31" data-name="Path 31" d="M20.637,128.49a13.372,13.372,0,0,1-3.156-7.276l.85-.093a12.52,12.52,0,0,0,2.955,6.813Z" transform="translate(-14.99 -103.863)" fill="#e1091d"/>
    <path id="Path_32" data-name="Path 32" d="M175.813,129.061l-.616-.592a12.645,12.645,0,0,0,3.44-7.347l.85.093a13.505,13.505,0,0,1-3.673,7.846" transform="translate(-150.234 -103.863)" fill="#e1091d"/>
    <path id="Path_33" data-name="Path 33" d="M135.465,30.135a12.565,12.565,0,0,0-10.639-11.292l.129-.845a13.419,13.419,0,0,1,11.361,12.058Z" transform="translate(-107.04 -15.434)" fill="#e1091d"/>
    <rect id="Rectangle_1052" data-name="Rectangle 1052" width="5.974" height="0.855" transform="translate(25.769 15.444)"/>
    <rect id="Rectangle_1053" data-name="Rectangle 1053" width="5.974" height="0.855" transform="translate(25.769 15.444)" fill="#002469"/>
    <rect id="Rectangle_1054" data-name="Rectangle 1054" width="5.974" height="0.855" transform="translate(0 15.444)" fill="#002469"/>
    <rect id="Rectangle_1055" data-name="Rectangle 1055" width="0.855" height="5.974" transform="translate(15.444 0)" fill="#002469"/>
  </g>
</svg>
