<svg id="Group_2059" data-name="Group 2059" xmlns="http://www.w3.org/2000/svg" xmlns:xlink="http://www.w3.org/1999/xlink" width="40.565" height="32.788" viewBox="0 0 40.565 32.788">
  <defs>
    <clipPath id="clip-path">
      <rect id="Rectangle_1049" data-name="Rectangle 1049" width="40.565" height="32.788" fill="#fff"/>
    </clipPath>
  </defs>
  <g id="Group_2058" data-name="Group 2058" clip-path="url(#clip-path)">
    <path id="Path_21" data-name="Path 21" d="M40.8,126.609a.639.639,0,0,1-.3-.074l-2.024-1.064-2.024,1.064a.639.639,0,0,1-.927-.673l.387-2.254-1.638-1.6a.639.639,0,0,1,.354-1.089l2.263-.329,1.012-2.051a.635.635,0,0,1,.572-.356h0a.635.635,0,0,1,.573.356h0l1.012,2.051,2.263.329a.639.639,0,0,1,.354,1.089l-1.638,1.6.387,2.254a.64.64,0,0,1-.629.747m-2.322-1.825a.637.637,0,0,1,.3.073l1.967,1.034-.376-2.19a.638.638,0,0,1,.183-.565l1.591-1.551-2.2-.32a.638.638,0,0,1-.481-.35l-.983-1.992-.983,1.993a.639.639,0,0,1-.481.349l-2.2.32,1.591,1.551a.639.639,0,0,1,.184.565l-.376,2.19,1.967-1.034a.638.638,0,0,1,.3-.073" transform="translate(-30.21 -104.76)" fill="#fff"/>
    <path id="Path_22" data-name="Path 22" d="M252.328,126.609a.639.639,0,0,1-.3-.074l-2.024-1.064-2.024,1.064a.639.639,0,0,1-.927-.673l.387-2.254-1.638-1.6a.639.639,0,0,1,.354-1.089l2.263-.329,1.012-2.051a.635.635,0,0,1,.572-.356h0a.635.635,0,0,1,.573.356h0l1.012,2.051,2.263.329a.639.639,0,0,1,.354,1.089l-1.638,1.6.387,2.254a.64.64,0,0,1-.629.747m-2.322-1.825a.637.637,0,0,1,.3.073l1.967,1.034-.376-2.19a.638.638,0,0,1,.184-.565l1.591-1.551-2.2-.32a.639.639,0,0,1-.481-.349l-.983-1.993-.983,1.993a.639.639,0,0,1-.481.349l-2.2.32,1.591,1.551a.639.639,0,0,1,.184.565l-.376,2.19,1.967-1.034a.638.638,0,0,1,.3-.073" transform="translate(-217.708 -104.76)" fill="#fff"/>
    <path id="Path_23" data-name="Path 23" d="M123.116,14.613a.876.876,0,0,1-.409-.1l-3.68-1.935a.2.2,0,0,0-.182,0l-3.679,1.935a.877.877,0,0,1-1.272-.924l.7-4.1a.2.2,0,0,0-.056-.173l-2.977-2.9a.877.877,0,0,1,.486-1.5l4.114-.6a.2.2,0,0,0,.147-.107l1.84-3.728a.877.877,0,0,1,1.573,0l1.84,3.728a.2.2,0,0,0,.147.107l4.114.6a.877.877,0,0,1,.486,1.5l-2.977,2.9a.2.2,0,0,0-.056.173l.7,4.1a.879.879,0,0,1-.863,1.026m-4.179-2.74a.876.876,0,0,1,.408.1l3.68,1.935a.2.2,0,0,0,.283-.206l-.7-4.1a.877.877,0,0,1,.252-.776l2.977-2.9a.2.2,0,0,0-.108-.333L121.612,5a.877.877,0,0,1-.66-.48L119.112.789a.2.2,0,0,0-.35,0l-1.84,3.728a.877.877,0,0,1-.66.48l-4.114.6a.2.2,0,0,0-.108.333l2.977,2.9a.877.877,0,0,1,.252.776l-.7,4.1a.2.2,0,0,0,.283.206l3.679-1.935a.877.877,0,0,1,.408-.1" transform="translate(-98.654 0.001)" fill="#fff"/>
    <path id="Path_24" data-name="Path 24" d="M5.017,226.47a.56.56,0,0,1-.261-.065l-1.442-.758-1.442.758a.559.559,0,0,1-.811-.59l.275-1.606L.169,223.073a.559.559,0,0,1,.31-.954l1.612-.234.721-1.461a.556.556,0,0,1,.5-.312h0a.555.555,0,0,1,.5.312l.721,1.461,1.612.234a.559.559,0,0,1,.31.954L5.292,224.21l.275,1.606a.56.56,0,0,1-.551.654M.823,222.758l1.035,1.009a.559.559,0,0,1,.161.495l-.244,1.425,1.279-.673a.56.56,0,0,1,.52,0l1.28.673-.244-1.425a.559.559,0,0,1,.161-.495l1.035-1.009-1.43-.208a.559.559,0,0,1-.421-.306l-.64-1.3-.64,1.3a.56.56,0,0,1-.421.306Zm3.742-.816h0M3.2,220.725h0Z" transform="translate(0 -195.106)" fill="#fff"/>
    <path id="Path_25" data-name="Path 25" d="M303.74,226.47a.559.559,0,0,1-.261-.065l-1.442-.758-1.442.758a.559.559,0,0,1-.811-.59l.275-1.606-1.167-1.137a.559.559,0,0,1,.31-.954l1.612-.234.721-1.461a.556.556,0,0,1,.5-.312h0a.555.555,0,0,1,.5.312l.721,1.461,1.612.234a.559.559,0,0,1,.31.954l-1.167,1.137.275,1.606a.56.56,0,0,1-.55.654m-4.194-3.712,1.035,1.009a.559.559,0,0,1,.161.495l-.244,1.425,1.279-.673a.56.56,0,0,1,.52,0l1.28.673-.244-1.425a.558.558,0,0,1,.161-.495l1.035-1.009-1.431-.208a.56.56,0,0,1-.421-.306l-.64-1.3-.64,1.3a.559.559,0,0,1-.421.306Zm3.742-.816h0" transform="translate(-264.786 -195.106)" fill="#fff"/>
    <path id="Path_26" data-name="Path 26" d="M135.51,223.912h-.682V221a4.7,4.7,0,0,0-4.7-4.7h-1.89a4.7,4.7,0,0,0-4.7,4.7v2.912h-.682V221a5.386,5.386,0,0,1,5.38-5.38h1.89a5.386,5.386,0,0,1,5.38,5.38Z" transform="translate(-108.902 -191.124)" fill="#fff"/>
    <path id="Path_27" data-name="Path 27" d="M144.747,152.659a4.33,4.33,0,1,1,4.33-4.33,4.335,4.335,0,0,1-4.33,4.33m0-7.979a3.648,3.648,0,1,0,3.648,3.649,3.653,3.653,0,0,0-3.648-3.649" transform="translate(-124.465 -127.64)" fill="#fff"/>
    <rect id="Rectangle_1047" data-name="Rectangle 1047" width="0.682" height="4.067" transform="translate(16.372 28.721)" fill="#fff"/>
    <rect id="Rectangle_1048" data-name="Rectangle 1048" width="0.682" height="4.067" transform="translate(23.511 28.721)" fill="#fff"/>
  </g>
</svg>
