<svg id="Group_2057" data-name="Group 2057" xmlns="http://www.w3.org/2000/svg" xmlns:xlink="http://www.w3.org/1999/xlink" width="32.877" height="32.877" viewBox="0 0 32.877 32.877">
  <defs>
    <clipPath id="clip-path">
      <rect id="Rectangle_1046" data-name="Rectangle 1046" width="32.877" height="32.877" fill="#002469"/>
    </clipPath>
  </defs>
  <g id="Group_2056" data-name="Group 2056" clip-path="url(#clip-path)">
    <path id="Path_13" data-name="Path 13" d="M32.406,32.877H.471A.471.471,0,0,1,0,32.406V.471A.471.471,0,0,1,.471,0H25.725A.471.471,0,0,1,26.2.471v6.21h6.21a.471.471,0,0,1,.471.471V32.406a.471.471,0,0,1-.471.471M.942,31.935H31.935V7.623h-6.21a.471.471,0,0,1-.471-.471V.942H.942Z" fill="#002469"/>
    <path id="Path_14" data-name="Path 14" d="M87.575,7.623H80.894a.471.471,0,0,1-.471-.471V.471a.471.471,0,0,1,.8-.333l6.681,6.681a.471.471,0,0,1-.333.8m-6.21-.942h5.073L81.365,1.608Z" transform="translate(-55.169 0)" fill="#002469"/>
    <path id="Path_15" data-name="Path 15" d="M84.824,88.672a.471.471,0,0,1-.333-.138.553.553,0,0,1-.1-.154.49.49,0,0,1-.034-.179.47.47,0,0,1,.138-.333.429.429,0,0,1,.072-.06.7.7,0,0,1,.082-.044.4.4,0,0,1,.088-.025.443.443,0,0,1,.182,0,.408.408,0,0,1,.088.025.671.671,0,0,1,.081.044.429.429,0,0,1,.072.06.471.471,0,0,1,.138.333.5.5,0,0,1-.035.179.561.561,0,0,1-.1.154.424.424,0,0,1-.154.1.437.437,0,0,1-.179.038" transform="translate(-57.865 -60.181)" fill="#e1091d"/>
    <path id="Path_16" data-name="Path 16" d="M40.855,88.2a.471.471,0,1,1,.471.471.47.47,0,0,1-.471-.471m-3.646,0a.47.47,0,1,1,.471.471.469.469,0,0,1-.471-.471m-3.649,0a.471.471,0,1,1,.471.471.47.47,0,0,1-.471-.471m-3.649,0a.471.471,0,1,1,.471.471.47.47,0,0,1-.471-.471m-3.649,0a.471.471,0,1,1,.471.471.47.47,0,0,1-.471-.471" transform="translate(-18.016 -60.181)" fill="#e1091d"/>
    <path id="Path_17" data-name="Path 17" d="M15.114,88.672a.476.476,0,0,1-.333-.138.482.482,0,0,1-.1-.154.447.447,0,0,1-.038-.179.465.465,0,0,1,.138-.333.429.429,0,0,1,.072-.06.674.674,0,0,1,.082-.044.405.405,0,0,1,.088-.025.471.471,0,0,1,.562.462.5.5,0,0,1-.035.179.553.553,0,0,1-.1.154.438.438,0,0,1-.151.1.462.462,0,0,1-.182.038" transform="translate(-10.045 -60.182)" fill="#e1091d"/>
    <path id="Path_18" data-name="Path 18" d="M28.223,31.648H15.116a.471.471,0,0,1-.471-.471V27.55a.471.471,0,0,1,.471-.471H28.223a.471.471,0,0,1,.471.471v3.627a.471.471,0,0,1-.471.471m-12.636-.942H27.752V28.021H15.587Z" transform="translate(-10.046 -18.576)" fill="#002469"/>
    <path id="Path_19" data-name="Path 19" d="M32.829,50.08H15.116a.471.471,0,0,1-.471-.471V45.982a.471.471,0,0,1,.471-.471H32.829a.471.471,0,0,1,.471.471v3.627a.471.471,0,0,1-.471.471m-17.242-.942H32.358V46.453H15.587Z" transform="translate(-10.046 -31.22)" fill="#e1091d"/>
    <path id="Path_20" data-name="Path 20" d="M37.006,68.513H15.116a.471.471,0,0,1-.471-.471V64.415a.471.471,0,0,1,.471-.471h21.89a.471.471,0,0,1,.471.471v3.627a.471.471,0,0,1-.471.471m-21.419-.942H36.534V64.886H15.587Z" transform="translate(-10.046 -43.865)" fill="#002469"/>
  </g>
</svg>
